<svg width="149" height="102" viewBox="0 0 149 102" fill="none" xmlns="http://www.w3.org/2000/svg">
<path d="M58.3568 72.9746L49.8734 61.7905C49.3901 61.1588 48.63 60.7798 47.8384 60.7798H35.1904C33.7893 60.7798 32.5704 61.8606 32.5284 63.2609C32.4863 64.6611 33.6457 65.8998 35.0818 65.8998H46.5669L55.0503 77.084C55.5337 77.7156 56.2937 78.0946 57.0853 78.0946H63.9435C65.355 78.0946 66.5004 76.9471 66.5004 75.5329C66.5004 74.1186 65.355 72.9711 63.9435 72.9711H58.3533L58.3568 72.9746Z" fill="#B41A23"/>
<path d="M113.457 56.0248C113.474 56.2108 113.502 56.3933 113.537 56.5723C113.502 56.3933 113.478 56.2108 113.457 56.0248Z" fill="#B41A23"/>
<path d="M147.38 73.7467C146.875 73.2308 146.164 72.9746 145.443 72.9746H136.805L126.196 41.5524C125.846 40.5102 124.872 39.8118 123.775 39.8118H117.849L114.038 27.9329C113.698 26.8695 112.718 26.1536 111.604 26.1536H93.6423L98.9558 8.78616C99.3201 7.58949 98.7737 6.21034 97.4882 5.66991C97.1555 5.52954 96.7912 5.47339 96.4304 5.47339H84.3358L84.7561 4.17495C84.8682 3.83104 84.9208 3.46607 84.8822 3.10813C84.7351 1.71845 83.5828 0.791992 82.3358 0.791992H62.8647C61.7579 0.791992 60.7771 1.50789 60.4338 2.56068L52.7911 26.1536H41.0188C39.9925 26.1536 39.0713 26.7643 38.6685 27.7083L33.4916 39.8118H26.4128C25.4425 39.8118 24.5424 40.3768 24.115 41.2506L14.5949 60.7833H2.61587C1.8488 60.7833 1.10274 61.0957 0.608872 61.6852C-0.154702 62.5976 -0.193253 63.861 0.454734 64.798L25.2814 100.891C25.7578 101.586 26.5459 102 27.3865 102H131.804C132.714 102 133.562 101.509 134.017 100.716L147.758 76.8173C148.315 75.8452 148.185 74.5854 147.369 73.7502L147.38 73.7467ZM125.166 54.4771L125.814 56.3932H119.53C119.068 56.3932 118.644 56.0809 118.553 55.6282C118.434 55.0176 118.9 54.4806 119.492 54.4806H125.166V54.4771ZM82.6826 10.597H93.0609L88.3008 26.1536H77.6423L82.6826 10.597ZM64.7281 5.91556H78.8262L72.2693 26.1572H58.1712L64.7281 5.91556ZM42.707 31.2772H109.744L112.483 39.8118H39.0573L42.707 31.2772ZM130.332 96.8729H28.735L7.432 65.9034H24.6089C26.01 65.9034 27.2289 64.8225 27.2709 63.4223C27.313 62.0221 26.1536 60.7833 24.7175 60.7833H20.2902L28.017 44.9354H121.947L123.439 49.3571H119.656C116.686 49.3571 114.101 51.4872 113.541 54.2982C113.506 54.4771 113.481 54.6596 113.46 54.8456C113.453 54.9228 113.45 55 113.446 55.0772C113.439 55.1965 113.432 55.3159 113.432 55.4387C113.432 55.558 113.439 55.6773 113.446 55.7966C113.45 55.8738 113.453 55.951 113.46 56.0282C113.478 56.2142 113.502 56.3967 113.541 56.5757C114.101 59.3866 116.686 61.5168 119.656 61.5168H127.544L131.415 72.9781H84.1257C82.7141 72.9781 81.5688 74.1257 81.5688 75.5399C81.5688 76.9541 82.7141 78.1017 84.1257 78.1017H141.135L130.336 96.8764L130.332 96.8729Z" fill="#B41A23"/>
<path d="M113.443 55.7932C113.436 55.6739 113.429 55.5546 113.429 55.4352C113.429 55.4703 113.425 55.5019 113.425 55.537C113.425 55.6247 113.436 55.709 113.443 55.7932Z" fill="#B41A23"/>
<path d="M75.1555 72.9745H72.9138C71.5017 72.9745 70.3569 74.1214 70.3569 75.5363C70.3569 76.9511 71.5017 78.0981 72.9138 78.0981H75.1555C76.5677 78.0981 77.7125 76.9511 77.7125 75.5363C77.7125 74.1214 76.5677 72.9745 75.1555 72.9745Z" fill="#B41A23"/>
<path d="M119.492 61.5168H119.653C116.683 61.5168 114.098 59.3867 113.537 56.5757C114.073 59.3832 116.536 61.5168 119.492 61.5168Z" fill="#B41A23"/>
<path d="M118.602 95.8271C122.809 95.8271 126.231 92.3985 126.231 88.1839C126.231 83.9692 122.809 80.5406 118.602 80.5406C114.396 80.5406 110.973 83.9692 110.973 88.1839C110.973 92.3985 114.396 95.8271 118.602 95.8271ZM118.602 85.6607C119.989 85.6607 121.117 86.7907 121.117 88.1804C121.117 89.5701 119.989 90.7001 118.602 90.7001C117.215 90.7001 116.087 89.5701 116.087 88.1804C116.087 86.7907 117.215 85.6607 118.602 85.6607Z" fill="#B41A23"/>
<path d="M100.024 95.8271C104.231 95.8271 107.653 92.3985 107.653 88.1839C107.653 83.9692 104.231 80.5406 100.024 80.5406C95.8176 80.5406 92.3955 83.9692 92.3955 88.1839C92.3955 92.3985 95.8176 95.8271 100.024 95.8271ZM100.024 85.6607C101.411 85.6607 102.539 86.7907 102.539 88.1804C102.539 89.5701 101.411 90.7001 100.024 90.7001C98.6372 90.7001 97.5094 89.5701 97.5094 88.1804C97.5094 86.7907 98.6372 85.6607 100.024 85.6607Z" fill="#B41A23"/>
<path d="M59.3901 61.5169H73.7894C77.1345 61.5169 79.8595 58.7902 79.8595 55.4353C79.8595 52.0804 77.138 49.3572 73.7894 49.3572H59.3901C56.0451 49.3572 53.3201 52.084 53.3201 55.4353C53.3201 58.7867 56.0416 61.5169 59.3901 61.5169ZM59.3901 54.4773H73.7894C74.3148 54.4773 74.7457 54.9054 74.7457 55.4353C74.7457 55.9652 74.3183 56.3934 73.7894 56.3934H59.3901C58.8647 56.3934 58.4339 55.9652 58.4339 55.4353C58.4339 54.9054 58.8612 54.4773 59.3901 54.4773Z" fill="#B41A23"/>
<path d="M89.096 61.5169H103.495C106.84 61.5169 109.562 58.7902 109.562 55.4353C109.562 52.0804 106.84 49.3572 103.495 49.3572H89.096C85.751 49.3572 83.0294 52.084 83.0294 55.4353C83.0294 58.7867 85.751 61.5169 89.096 61.5169ZM89.096 54.4773H103.495C104.021 54.4773 104.452 54.9054 104.452 55.4353C104.452 55.9652 104.024 56.3934 103.495 56.3934H89.096C88.5706 56.3934 88.1398 55.9652 88.1398 55.4353C88.1398 54.9054 88.5671 54.4773 89.096 54.4773Z" fill="#B41A23"/>
</svg>
