<svg width="380" height="552" viewBox="0 0 380 552" fill="none" xmlns="http://www.w3.org/2000/svg">
<circle cx="40.9307" cy="40.9307" r="37.9307" transform="matrix(-0.913734 -0.406313 -0.406313 0.913734 150.031 309.363)" stroke="#73CDE5" stroke-width="6"/>
<circle cx="63.6095" cy="63.6095" r="60.6095" transform="matrix(-0.987674 -0.156527 -0.156527 0.987674 365.974 24.1483)" stroke="#73CDE5" stroke-width="6"/>
<circle cx="46.9362" cy="46.9362" r="43.9362" transform="matrix(-0.987674 -0.156527 -0.156527 0.987674 303.551 166.087)" stroke="#73CDE5" stroke-width="6"/>
<circle cx="26.5" cy="26.5" r="23.5" transform="matrix(-0.987674 -0.156527 -0.156527 0.987674 202.15 251.371)" stroke="#73CDE5" stroke-width="6"/>
<circle cx="24.8992" cy="24.8992" r="21.8992" transform="matrix(-0.913734 -0.406313 -0.406313 0.913734 78.8804 465.868)" stroke="#73CDE5" stroke-width="6"/>
<circle cx="31.5639" cy="31.5639" r="28.5639" transform="matrix(-0.913734 -0.406313 -0.406313 0.913734 140.757 409.578)" stroke="#73CDE5" stroke-width="6"/>
<circle cx="19.5955" cy="19.5955" r="16.5955" transform="matrix(-0.913734 -0.406313 -0.406313 0.913734 119.705 512.872)" stroke="#73CDE5" stroke-width="6"/>
</svg>
