<svg width="103" height="104" viewBox="0 0 103 104" fill="none" xmlns="http://www.w3.org/2000/svg">
<g clip-path="url(#clip0_1_73)">
<path d="M84.0843 86.0093H72.4389C72.8694 85.0092 73.0959 83.9217 73.0959 82.8536C73.0959 80.3679 71.9178 77.9857 69.9402 76.4807L66.8234 74.105C72.7108 70.4444 76.3617 63.9226 76.3714 57.0189C78.3684 56.1612 79.6501 54.2321 79.6501 52.0733V38.9585C79.6501 37.5571 79.0772 36.1847 78.0706 35.1749C79.0902 33.9191 79.6501 32.359 79.6501 30.7634C79.6501 27.6336 77.5495 24.8501 74.5395 23.9891C73.9698 23.8273 73.3678 23.9406 72.892 24.2999C72.4033 24.6688 72.125 25.2288 72.125 25.8405V26.2774C72.125 27.1028 72.6719 27.8407 73.4908 28.1126C74.6366 28.4945 75.4037 29.5594 75.4037 30.7634C75.4037 32.3299 74.1349 33.5566 72.5198 33.5566C64.2859 33.5566 56.8837 28.9833 53.2004 21.6167C52.8379 20.8917 52.1097 20.4418 51.3005 20.4418C50.4914 20.4418 49.7631 20.8917 49.4006 21.6167C45.7432 28.9347 38.354 33.5113 30.1006 33.5566C28.5827 33.5566 27.2848 32.3752 27.2039 30.922C27.1327 29.6273 27.9483 28.4622 29.1847 28.0899C29.9582 27.8569 30.4761 27.1675 30.4761 26.3713V25.6754C30.4761 25.1187 30.2236 24.6041 29.7835 24.261C29.34 23.9179 28.7736 23.8014 28.2299 23.9406C25.1195 24.7433 22.9477 27.5494 22.9477 30.7602C22.9477 32.3558 23.5109 33.9159 24.5337 35.1684C23.5238 36.1815 22.9477 37.5538 22.9477 38.9585V52.0733C22.9477 54.2321 24.2294 56.1644 26.2264 57.0189C26.2264 59.0482 26.5501 61.0808 27.1844 63.0617H23.6533C16.2058 63.0617 10.1404 68.7905 9.84586 76.1052C9.70021 79.7367 10.9787 83.1999 13.4515 85.8734C13.2217 86.689 13.1116 87.4108 13.1116 88.1358C13.1116 92.9227 17.0053 96.8164 21.7922 96.8164H26.2232V101.043C26.2232 102.328 27.2686 103.371 28.5503 103.371H84.0778C87.0587 103.371 89.4797 100.946 89.4797 97.9686V91.4112C89.4797 88.4335 87.0555 86.0093 84.0778 86.0093H84.0843ZM56.0066 99.1241H46.8696V89.9871L56.0066 99.1241ZM30.4761 84.8571C30.4761 82.4134 32.4634 80.4261 34.907 80.4261H38.1857C40.6294 80.4261 42.6167 82.4134 42.6167 84.8571V86.0093H30.4729V84.8571H30.4761ZM44.3062 33.5566C47.0347 31.757 49.4395 29.4072 51.3005 26.7273C53.1616 29.4072 55.5729 31.757 58.3046 33.5566H44.3062ZM51.6986 77.1474C52.9868 77.1474 54.2005 77.6491 55.1133 78.5618L66.8104 90.2622H75.4004V99.1273H63.8489C62.6805 99.1273 61.538 98.6548 60.7159 97.8295L48.2808 85.3911C47.368 84.4816 46.8664 83.2711 46.8664 81.9765C46.8664 79.3127 49.0317 77.1474 51.6954 77.1474H51.6986ZM55.4984 53.9991C52.7991 52.9731 49.802 52.9731 47.1026 53.9991C47.682 52.1704 49.3683 50.9211 51.3005 50.9211C53.2328 50.9211 54.9158 52.1737 55.4984 53.9991ZM68.8463 44.3637V46.6714H59.9812V44.3637H68.8463ZM73.0959 50.9211V40.114H55.7347V47.9143C55.0129 47.4805 54.2394 47.1569 53.427 46.9497V37.8063H74.2514C74.889 37.8063 75.4037 38.3241 75.4037 38.9585V52.0733C75.4037 52.7109 74.8858 53.2256 74.2514 53.2256H59.719C59.5151 52.4261 59.1849 51.6526 58.7383 50.9178H73.0959V50.9211ZM49.1773 46.9497C48.3681 47.1537 47.5946 47.4773 46.8696 47.9143V40.114H29.5051V50.9211H43.866C43.4193 51.6558 43.0892 52.4293 42.8853 53.2288H28.3529C27.7153 53.2288 27.2006 52.7109 27.2006 52.0766V38.9618C27.2006 38.3241 27.7185 37.8095 28.3529 37.8095H49.1773V46.953V46.9497ZM33.7548 46.6714V44.3637H42.6199V46.6714H33.7548ZM51.3005 57.4752C55.5534 57.4752 59.0102 60.9352 59.0102 65.1849C59.0102 69.4346 55.5502 72.8945 51.3005 72.8945C47.0508 72.8945 43.5909 69.4346 43.5909 65.1849C43.5909 60.9352 47.0508 57.4752 51.3005 57.4752ZM67.9012 85.3393L59.4406 76.8788C60.4505 76.7137 61.47 76.4613 62.4766 76.1344L67.3639 79.863C68.2928 80.5718 68.8463 81.6917 68.8463 82.8601C68.8463 83.7825 68.5129 84.6564 67.9012 85.3458V85.3393ZM61.0039 72.1533C62.4831 70.111 63.2598 67.7127 63.2598 65.1881C63.2598 62.3561 62.2565 59.6308 60.431 57.4785H72.1185C71.9113 64.1815 67.3865 70.1337 61.0039 72.1566V72.1533ZM42.1732 57.4752C41.5809 58.1776 41.0696 58.9511 40.6488 59.783H36.548C34.6675 59.783 33.0557 61.2103 32.8162 63.0617H31.6898C30.9486 61.275 30.5408 59.3978 30.4826 57.4752H42.1732ZM39.4059 66.3404H37.0335V64.0326H39.4059C39.3606 64.4437 39.3412 64.8256 39.3412 65.1849C39.3412 65.5441 39.3639 65.9261 39.4059 66.3371V66.3404ZM40.6488 70.59C40.9271 71.1338 41.2443 71.6581 41.6004 72.1533C40.4061 71.7746 39.2538 71.2503 38.1695 70.59H40.6456H40.6488ZM23.4332 67.3113H29.0973C32.321 72.6906 37.9139 76.2962 44.112 76.9986C43.8951 77.3255 43.7009 77.6685 43.5294 78.0181C42.0082 76.827 40.118 76.1765 38.1857 76.1765H34.907C32.2789 76.1765 29.8223 77.3708 28.1554 79.4552H21.7922C19.559 79.4552 17.3645 80.3646 15.743 81.9603C14.6555 80.3938 14.0826 78.5651 14.0826 76.6619C14.0826 71.506 18.2773 67.3113 23.4332 67.3113ZM21.7955 83.7048H26.3041C26.2523 84.0868 26.2264 84.4719 26.2264 84.8571V86.0093H23.4332C21.844 86.0093 20.2775 85.5983 18.8857 84.8182C19.7014 84.0965 20.7241 83.7016 21.7955 83.7016V83.7048ZM23.4332 90.259H26.2264V92.5667H21.7955C19.601 92.5667 17.7723 90.9872 17.426 88.8446C19.2936 89.7703 21.365 90.259 23.4364 90.259H23.4332ZM42.6199 90.259V99.1241H30.4761V90.259H42.6199ZM79.6533 90.259H84.0843C84.7219 90.259 85.2365 90.7769 85.2365 91.4112V97.9686C85.2365 98.6062 84.7187 99.1209 84.0843 99.1209H79.6533V90.2558V90.259Z" fill="#B41A23"/>
<path d="M51.3005 70.59C54.2814 70.59 56.7024 68.1658 56.7024 65.1881C56.7024 62.2104 54.2782 59.7861 51.3005 59.7861C48.3228 59.7861 45.8986 62.2104 45.8986 65.1881C45.8986 68.1658 48.3228 70.59 51.3005 70.59ZM51.3005 64.0326C51.9381 64.0326 52.4527 64.5504 52.4527 65.1848C52.4527 65.8192 51.9349 66.3371 51.3005 66.3371C50.6661 66.3371 50.1482 65.8192 50.1482 65.1848C50.1482 64.5504 50.6661 64.0326 51.3005 64.0326Z" fill="#B41A23"/>
<path d="M8.68067 92.5666C5.69974 92.5666 3.27875 94.9908 3.27875 97.9685C3.27875 100.946 5.70298 103.37 8.68067 103.37C11.6584 103.37 14.0826 100.946 14.0826 97.9685C14.0826 94.9908 11.6584 92.5666 8.68067 92.5666ZM8.68067 99.124C8.04306 99.124 7.52843 98.6061 7.52843 97.9718C7.52843 97.3374 8.04629 96.8195 8.68067 96.8195C9.31505 96.8195 9.83291 97.3374 9.83291 97.9718C9.83291 98.6061 9.31505 99.124 8.68067 99.124Z" fill="#B41A23"/>
<path d="M97.1991 82.7339C94.2181 82.7339 91.7971 85.1581 91.7971 88.1358C91.7971 91.1135 94.2214 93.5377 97.1991 93.5377C100.177 93.5377 102.601 91.1135 102.601 88.1358C102.601 85.1581 100.177 82.7339 97.1991 82.7339ZM97.1991 89.2881C96.5615 89.2881 96.0468 88.7702 96.0468 88.1358C96.0468 87.5014 96.5647 86.9836 97.1991 86.9836C97.8335 86.9836 98.3513 87.5014 98.3513 88.1358C98.3513 88.7702 97.8335 89.2881 97.1991 89.2881Z" fill="#B41A23"/>
<path d="M10.8071 84.8571C10.8071 81.8794 8.38292 79.4551 5.40522 79.4551C2.42753 79.4551 6.10352e-05 81.8794 6.10352e-05 84.8571C6.10352e-05 87.8348 2.42429 90.259 5.40199 90.259C8.37968 90.259 10.8039 87.8348 10.8039 84.8571H10.8071ZM5.40199 83.7048C6.0396 83.7048 6.55422 84.2227 6.55422 84.8571C6.55422 85.4914 6.03636 86.0093 5.40199 86.0093C4.76761 86.0093 4.24975 85.4914 4.24975 84.8571C4.24975 84.2227 4.76761 83.7048 5.40199 83.7048Z" fill="#B41A23"/>
<path d="M87.4051 72.095L83.191 70.4087C83.0324 70.344 82.9321 70.1951 82.9321 70.0268C82.9321 69.8714 83.0194 69.7322 83.1586 69.6643L93.5126 64.4889C97.0988 62.6958 99.3255 59.0935 99.3255 55.0833C99.3255 51.4324 97.4774 48.1019 94.3832 46.1664L87.5993 41.9264C86.638 41.3244 86.1137 40.2434 86.2269 39.1106C86.2949 38.4438 86.6153 37.79 87.1364 37.2722L92.9494 31.4592C94.9173 29.4913 96.0468 26.8438 96.0468 24.1962C96.0468 20.3608 93.9171 16.9106 90.4831 15.1919L64.014 1.9606C60.4666 0.186927 56.0389 0.46204 52.7408 2.66294L51.3005 3.62422L49.8602 2.66294C46.5621 0.46204 42.1344 0.186927 38.5774 1.96707L33.8875 4.47222C33.0104 4.90916 32.6479 5.95135 33.0557 6.84142L33.3243 7.42402C33.5315 7.87067 33.9004 8.20728 34.3633 8.37235C34.8294 8.53418 35.331 8.50181 35.7809 8.27848L40.487 5.76363C42.6943 4.65994 45.4487 4.83148 47.5007 6.20057L51.3005 8.73161L55.0971 6.20057C57.1491 4.83148 59.9035 4.65994 62.1108 5.76363L88.4278 18.9237C90.5057 19.9627 91.8263 22.073 91.7907 24.2965C91.7648 25.8113 91.1628 27.2386 90.0882 28.3099L84.1781 34.22C82.8511 35.547 82.0679 37.2463 81.9675 39.007C81.8186 41.6384 83.1133 44.1403 85.3401 45.532L92.1241 49.772C93.9689 50.9242 95.0694 52.9115 95.0694 55.0865C95.0694 57.4752 93.7424 59.621 91.6062 60.6924L81.249 65.8677C79.6631 66.6607 78.6759 68.2563 78.6759 70.03C78.6759 71.9429 79.8249 73.6421 81.6018 74.3541L85.8191 76.0404C86.6509 76.3738 87.062 77.2865 86.7772 78.1604C86.6509 78.5488 86.3467 78.8822 85.9259 79.099C85.052 79.5489 84.6992 80.63 85.1394 81.5071L85.4857 82.1997C85.6864 82.6011 86.0327 82.8988 86.4567 83.0412C86.6283 83.0963 86.8063 83.1254 86.9811 83.1254C87.2432 83.1254 87.4989 83.0639 87.7352 82.9441C89.6739 81.9602 90.9654 80.0668 91.1045 77.9986C91.2761 75.4222 89.7872 73.0498 87.3953 72.095H87.4051Z" fill="#B41A23"/>
<path d="M15.005 41.9264L9.67106 45.2601C5.50229 47.8656 3.1169 52.358 3.2852 57.2777C3.37259 59.7925 4.2044 62.3009 5.69001 64.5277L5.96513 64.9388C6.37294 65.5537 7.08176 65.9324 7.80677 65.9324C8.14337 65.9324 8.47998 65.8483 8.77128 65.6929C9.29885 65.4081 9.68724 64.9129 9.83289 64.3335C9.97854 63.7542 9.87173 63.136 9.53836 62.6408L9.20822 62.1456C8.16279 60.5758 7.5802 58.8216 7.53165 57.0705C7.43455 53.7077 9.07552 50.6394 11.9205 48.8625L17.2545 45.5287C19.3745 44.205 20.64 41.9199 20.64 39.4212C20.64 37.4955 19.8923 35.6862 18.5297 34.33L12.5937 28.3941C11.571 27.3745 10.9463 26.0702 10.8265 24.7237C10.6162 22.3189 11.8687 20.0695 14.0178 18.9982L22.3813 14.8164C23.3134 14.3504 23.7018 13.2434 23.2649 12.2983L23.0901 11.9229C22.87 11.4471 22.4784 11.0878 21.9832 10.9163C21.488 10.7415 20.9572 10.7771 20.4879 11.0102L12.1115 15.1984C8.67742 16.9138 6.54772 20.3672 6.54772 24.2059C6.54772 26.8534 7.6773 29.4978 9.64517 31.4656L15.4614 37.2786C15.9792 37.7965 16.3029 38.4503 16.3709 39.117C16.4842 40.2498 15.9598 41.3276 14.9985 41.9296L15.005 41.9264Z" fill="#B41A23"/>
<path d="M25.2813 11.088C25.5241 11.6123 25.9578 12.0007 26.5048 12.1852C26.7184 12.2564 26.9417 12.292 27.165 12.292C27.5016 12.292 27.8383 12.2046 28.1425 12.0428L29.5957 11.2595C30.557 10.7417 30.9487 9.56355 30.4955 8.57314L30.4502 8.47281C30.2075 7.94848 29.7738 7.56008 29.2268 7.37559C28.6798 7.19111 28.1004 7.24289 27.5923 7.51477L26.139 8.29803C25.181 8.81589 24.7861 9.99402 25.2393 10.9844L25.2846 11.0848L25.2813 11.088Z" fill="#B41A23"/>
<path d="M97.1991 11.5799C100.18 11.5799 102.601 9.15565 102.601 6.17796C102.601 3.20026 100.177 0.776031 97.1991 0.776031C94.2214 0.776031 91.7971 3.20026 91.7971 6.17796C91.7971 9.15565 94.2214 11.5799 97.1991 11.5799ZM97.1991 5.02248C97.8367 5.02248 98.3513 5.54034 98.3513 6.17472C98.3513 6.8091 97.8335 7.32696 97.1991 7.32696C96.5647 7.32696 96.0468 6.8091 96.0468 6.17472C96.0468 5.54034 96.5647 5.02248 97.1991 5.02248Z" fill="#B41A23"/>
</g>
<defs>
<clipPath id="clip0_1_73">
<rect width="102.601" height="102.601" fill="white" transform="translate(0 0.772705)"/>
</clipPath>
</defs>
</svg>
