<svg width="40" height="40" viewBox="0 0 40 40" fill="none" xmlns="http://www.w3.org/2000/svg">
<path d="M31.5525 3.0426H7.93932C5.22417 3.0426 3.00269 5.26409 3.00269 7.97923V31.5948C3.00269 34.31 5.22417 36.5315 7.93932 36.5315H31.5549C34.2701 36.5315 36.4916 34.31 36.4916 31.5948V7.97923C36.4891 5.26409 34.2701 3.0426 31.5525 3.0426ZM31.2353 20.9169H27.2613V35.2948H21.3151V20.9169H18.3408V15.9605H21.3151V12.9862C21.3151 8.94311 22.9936 6.53774 27.7698 6.53774H31.74V11.4929H29.2569C27.4007 11.4929 27.2773 12.1877 27.2773 13.4799L27.2613 15.9605H31.7598L31.2353 20.9169Z" fill="white"/>
</svg>
