<svg width="149" height="102" viewBox="0 0 149 102" fill="none" xmlns="http://www.w3.org/2000/svg">
<path d="M147.38 73.7467C146.875 73.2308 146.164 72.9746 145.443 72.9746H136.805L126.196 41.5524C125.846 40.5102 124.872 39.8118 123.775 39.8118H117.849L114.038 27.9329C113.698 26.8695 112.718 26.1536 111.604 26.1536H93.6423L98.9558 8.78616C99.3201 7.58949 98.7737 6.21034 97.4882 5.66991C97.1555 5.52954 96.7912 5.47339 96.4304 5.47339H84.3358L84.7561 4.17495C84.8682 3.83104 84.9208 3.46607 84.8822 3.10813C84.7351 1.71845 83.5828 0.791992 82.3358 0.791992H62.8647C61.7579 0.791992 60.7771 1.50789 60.4338 2.56068L52.7911 26.1536H41.0188C39.9925 26.1536 39.0713 26.7643 38.6685 27.7083L33.4916 39.8118H26.4128C25.4425 39.8118 24.5424 40.3768 24.115 41.2506L14.5949 60.7833H2.61587C1.8488 60.7833 1.10274 61.0957 0.608872 61.6852C-0.154702 62.5976 -0.193253 63.861 0.454734 64.798L25.2814 100.891C25.7578 101.586 26.5459 102 27.3865 102H131.804C132.714 102 133.562 101.509 134.017 100.716L147.758 76.8173C148.315 75.8452 148.185 74.5854 147.369 73.7502L147.38 73.7467ZM125.166 54.4771L125.814 56.3932H119.53C119.068 56.3932 118.644 56.0809 118.553 55.6282C118.434 55.0176 118.9 54.4806 119.492 54.4806H125.166V54.4771ZM82.6826 10.597H93.0609L88.3008 26.1536H77.6423L82.6826 10.597ZM64.7281 5.91556H78.8262L72.2693 26.1572H58.1712L64.7281 5.91556ZM42.707 31.2772H109.744L112.483 39.8118H39.0573L42.707 31.2772ZM130.332 96.8729H28.735L7.432 65.9034H24.6089C26.01 65.9034 27.2289 64.8225 27.2709 63.4223C27.313 62.0221 26.1536 60.7833 24.7175 60.7833H20.2902L28.017 44.9354H121.947L123.439 49.3571H119.656C116.686 49.3571 114.101 51.4872 113.541 54.2982C113.506 54.4771 113.481 54.6596 113.46 54.8456C113.453 54.9228 113.45 55 113.446 55.0772C113.439 55.1965 113.432 55.3159 113.432 55.4387C113.432 55.558 113.439 55.6773 113.446 55.7966C113.45 55.8738 113.453 55.951 113.46 56.0282C113.478 56.2142 113.502 56.3967 113.541 56.5757C114.101 59.3866 116.686 61.5168 119.656 61.5168H127.544L131.415 72.9781H84.1257C82.7141 72.9781 81.5688 74.1257 81.5688 75.5399C81.5688 76.9541 82.7141 78.1017 84.1257 78.1017H141.135L130.336 96.8764L130.332 96.8729Z" fill="#B41A23"/>
</svg>
