<svg width="118" height="103" viewBox="0 0 118 103" fill="none" xmlns="http://www.w3.org/2000/svg">
<path d="M117.682 18.3947C117.682 16.9839 116.529 15.8329 115.125 15.8329H107.45V10.7058C107.45 9.6039 106.732 8.62832 105.71 8.27037L92.0983 3.73286V3.01345C92.0983 1.5957 90.9389 0.448159 89.5238 0.451668C75.7165 0.458687 63.853 8.94064 58.8408 20.9565C53.8285 8.94064 41.9651 0.458687 28.1577 0.451668C26.7426 0.451668 25.5833 1.5957 25.5833 3.01345V3.73286L11.972 8.27037C10.9247 8.62832 10.2312 9.6039 10.2312 10.7058V15.8329H2.55694C1.14888 15.8329 0 16.9874 0 18.3947V95.2903C0 96.701 1.15238 97.8521 2.55694 97.8521H44.9984L49.3731 102.235C49.86 102.723 50.4975 102.979 51.191 102.979H66.5396C67.2296 102.979 67.8706 102.698 68.3574 102.235L72.7322 97.8521H115.174C116.582 97.8521 117.731 96.6975 117.731 95.2903V18.3947H117.678H117.682ZM52.2138 97.8521L47.839 93.4689C47.3521 92.9812 46.7146 92.725 46.0211 92.725H5.11386V20.9565H10.2312V79.909C10.2312 80.7021 10.5885 81.4461 11.2049 81.9339C11.8179 82.4217 12.6375 82.6007 13.4046 82.3936C13.6848 82.3164 39.7794 76.1892 54.3118 97.8485H52.2138V97.8521ZM56.2803 82.7024C50.8057 74.0134 41.4677 68.0161 30.6971 67.1949V41.6964C30.6971 40.3207 29.5833 39.2048 28.2102 39.2048H28.0631C26.6901 39.2048 25.5762 40.3207 25.5762 41.6964V69.6549C25.5762 71.0656 26.7146 72.2202 28.1227 72.2167C39.6673 72.2097 49.5973 79.2107 53.9476 89.1841C40.6971 75.2908 22.5815 75.933 15.3416 76.8805V12.5482L25.5762 9.14067V21.332C25.5762 22.6795 26.6656 23.7709 28.0106 23.7709H28.2558C29.6008 23.7709 30.6901 22.6795 30.6901 21.332V5.68051C45.0159 6.98597 56.2733 19.086 56.2733 33.7724V82.7024H56.2803ZM92.0983 69.6549V9.14067L102.333 12.5482V76.884C95.093 75.9365 76.9809 75.2943 63.7269 89.1876C68.0772 79.2142 78.0107 72.2132 89.5519 72.2202C90.9599 72.2202 92.0983 71.0691 92.0983 69.6584V69.6549ZM61.3977 33.7724C61.3977 19.086 72.6552 6.98597 86.9809 5.68051V67.1703C76.2103 67.9915 66.8723 73.9889 61.3977 82.6779V33.7724ZM112.54 92.725H71.6324C70.9424 92.725 70.3014 93.0057 69.8145 93.4689L65.4397 97.8521H63.3417C77.7445 76.2453 103.121 82.1129 104.249 82.3971C105.016 82.5761 105.811 82.3971 106.449 81.9093C107.062 81.4215 107.422 80.6776 107.422 79.8845V20.9565H112.54V92.725Z" fill="#B41A23"/>
</svg>
