<svg width="41" height="42" viewBox="0 0 41 42" fill="none" xmlns="http://www.w3.org/2000/svg">
<path d="M20.7057 15.1079C17.4634 15.1079 14.8495 17.7469 14.8495 20.9641C14.8495 24.1813 17.4886 26.8203 20.7057 26.8203C23.9229 26.8203 26.562 24.1813 26.562 20.9641C26.562 17.7469 23.9229 15.1079 20.7057 15.1079ZM38.2996 20.9641C38.2996 18.5261 38.2996 16.1384 38.1739 13.7003C38.0483 10.8853 37.3948 8.37192 35.3338 6.33606C33.2728 4.27507 30.7845 3.62158 27.9695 3.49591C25.5315 3.37024 23.1437 3.37024 20.7057 3.37024C18.2677 3.37024 15.88 3.37024 13.442 3.49591C10.627 3.62158 8.11356 4.27507 6.0777 6.33606C4.0167 8.39706 3.36322 10.8853 3.23755 13.7003C3.11188 16.1384 3.11188 18.5261 3.11188 20.9641C3.11188 23.4021 3.11188 25.7898 3.23755 28.2278C3.36322 31.0429 4.0167 33.5563 6.0777 35.5921C8.13869 37.6531 10.627 38.3066 13.442 38.4323C15.88 38.558 18.2677 38.558 20.7057 38.558C23.1437 38.558 25.5315 38.558 27.9695 38.4323C30.7845 38.3066 33.2979 37.6531 35.3338 35.5921C37.3948 33.5311 38.0483 31.0429 38.1739 28.2278C38.3247 25.815 38.2996 23.4021 38.2996 20.9641ZM20.7057 29.9872C15.7041 29.9872 11.6826 25.9658 11.6826 20.9641C11.6826 15.9624 15.7041 11.941 20.7057 11.941C25.7074 11.941 29.7289 15.9624 29.7289 20.9641C29.7289 25.9658 25.7074 29.9872 20.7057 29.9872ZM30.1059 13.6752C28.9497 13.6752 27.9946 12.7453 27.9946 11.564C27.9946 10.3826 28.9246 9.45269 30.1059 9.45269C31.2872 9.45269 32.2171 10.3826 32.2171 11.564C32.2235 11.8393 32.1732 12.1129 32.0695 12.368C31.9657 12.6231 31.8107 12.8542 31.6139 13.0469C31.4212 13.2436 31.1902 13.3987 30.9351 13.5024C30.68 13.6062 30.4063 13.6564 30.131 13.6501L30.1059 13.6752Z" fill="white"/>
</svg>
