<svg width="186" height="186" viewBox="0 0 186 186" fill="none" xmlns="http://www.w3.org/2000/svg">
<circle cx="93" cy="93" r="93" fill="#EFFBFF"/>
<path d="M111.215 140.843C110.613 141.398 110.86 141.658 111.492 141.774C112.127 141.879 113.179 141.802 114.165 141.73L114.3 141.075L114.418 140.406C114.494 139.96 114.565 139.519 114.632 139.079L113.795 139.549L113.585 139.667L113.371 139.774L112.942 139.988L111.218 140.844L111.215 140.843Z" fill="#7CC9E3"/>
<path d="M119.167 137.282L119.766 136.218L120.058 135.691C120.155 135.517 120.241 135.329 120.333 135.149C120.69 134.423 121.041 133.711 121.369 133C121.078 133.447 120.775 133.887 120.471 134.335C120.165 134.78 119.863 135.242 119.528 135.666C117.765 136.144 117.56 135.571 117.849 134.779C117.995 134.383 118.269 133.929 118.552 133.514C118.826 133.085 119.103 132.683 119.29 132.42C118.312 133.333 117.761 133.931 117.553 134.431C117.34 134.924 117.444 135.282 117.685 135.577C118.159 136.17 119.197 136.502 119.167 137.281V137.282Z" fill="#7CC9E3"/>
<path d="M124.809 130.737C125.075 130.523 125.29 130.335 125.44 130.149C125.591 129.964 125.693 129.8 125.755 129.653C125.877 129.361 125.834 129.146 125.692 129.002C125.408 128.714 124.736 128.7 124.185 128.921C124.345 129.209 124.213 129.757 124.185 130.196C124.157 130.632 124.228 130.95 124.811 130.737H124.809Z" fill="#7CC9E3"/>
<path d="M43.2542 63.7286C43.9965 63.1844 44.7361 62.4771 44.9905 62.8253C45.0336 62.5676 45.0711 62.362 45.0572 62.2194C45.0447 62.0783 44.9877 62.0084 44.8654 62.0371C44.6123 62.0906 44.1313 62.5717 43.2555 63.7286H43.2542Z" fill="#7CC9E3"/>
<path d="M44.9891 62.824C44.9515 63.0186 44.9126 63.2283 44.8542 63.4682C44.9335 63.2914 45.0113 63.1516 45.085 62.9405C45.0711 62.8624 45.0196 62.8665 44.9891 62.8253V62.824Z" fill="#7CC9E3"/>
<path d="M95.9691 57.403C96.5821 57.2289 97.1271 57.1521 97.6303 57.1316C98.1294 57.1316 98.584 57.2028 99.0316 57.281L99.3666 57.344L99.5348 57.3769L99.7003 57.4194C99.9227 57.477 100.147 57.5332 100.38 57.5839C100.846 57.6894 101.35 57.7525 101.918 57.8224C102.141 58.5214 102.347 59.2136 102.536 59.8962C103.726 60.0114 104.114 59.7441 104.441 59.4096C104.603 59.2438 104.755 59.0546 104.987 58.9039C105.219 58.7531 105.535 58.6338 106.044 58.59C106.248 58.8298 106.501 59.0519 106.787 59.2561C107.065 59.4795 107.378 59.6865 107.713 59.8798C108.393 60.2444 109.119 60.6419 109.851 60.9558C110.036 61.0311 110.211 61.1202 110.385 61.2052C110.56 61.2875 110.731 61.3683 110.898 61.4478C111.232 61.6041 111.556 61.7412 111.841 61.8769C112.399 62.1674 112.843 62.3977 113.053 62.5595C113.121 63.1036 112.759 63.2119 112.32 63.2201C111.879 63.227 111.361 63.1297 111.08 63.2475C111.736 63.5039 112.288 63.5984 112.794 63.6313C113.285 63.6834 113.73 63.6724 114.189 63.6903C114.418 63.6985 114.65 63.7163 114.893 63.7519C115.139 63.7862 115.377 63.863 115.641 63.9603C115.904 64.0603 116.183 64.1947 116.486 64.3742C116.563 64.4195 116.639 64.4661 116.719 64.5168C116.799 64.5661 116.878 64.621 116.955 64.684C117.112 64.806 117.275 64.9431 117.444 65.0925L117.158 65.4968C119.197 66.4398 121.17 67.8256 122.951 69.5472C124.729 71.2729 126.323 73.3234 127.694 75.5645C129.067 77.8083 130.224 80.2357 131.183 82.7125C132.145 85.1921 132.913 87.7265 133.583 90.2513C133.602 89.8976 133.709 89.7551 133.848 89.6605C133.99 89.5659 134.173 89.5221 134.336 89.3644C134.832 92.1017 135.033 95.0103 134.96 97.9463C134.891 100.884 134.557 103.85 134.039 106.746C133.526 109.646 132.844 112.48 132.135 115.226C131.421 117.972 130.672 120.627 130.061 123.23C130.177 123.053 130.296 122.875 130.421 122.694C130.544 122.512 130.683 122.338 130.804 122.144C131.054 121.765 131.322 121.378 131.606 120.985C131.749 120.789 131.895 120.59 132.042 120.39C132.183 120.184 132.325 119.976 132.468 119.765C132.757 119.344 133.06 118.916 133.37 118.48C133.66 118.032 133.958 117.577 134.258 117.115C134.407 116.884 134.565 116.653 134.711 116.416C134.853 116.175 134.995 115.934 135.138 115.69C135.281 115.446 135.425 115.2 135.568 114.955C135.71 114.708 135.861 114.464 135.986 114.207C136.248 113.698 136.508 113.184 136.763 112.667C136.826 112.537 136.894 112.41 136.951 112.278L137.121 111.881C137.232 111.615 137.342 111.35 137.453 111.084C137.56 110.818 137.667 110.551 137.773 110.286C137.875 110.019 137.956 109.746 138.045 109.476C138.216 108.935 138.383 108.396 138.526 107.859C138.648 107.316 138.757 106.776 138.849 106.243C138.892 105.976 138.943 105.713 138.965 105.447C138.99 105.181 139.01 104.918 139.025 104.656C139.053 104.132 139.072 103.621 139.05 103.119C139.015 102.615 138.958 102.123 138.878 101.648C138.837 101.411 138.79 101.177 138.737 100.948C138.685 100.719 138.607 100.492 138.532 100.271C138.728 99.9817 138.876 99.6624 138.992 99.3252C139.049 99.1566 139.099 98.9839 139.141 98.8071C139.161 98.7193 139.182 98.6302 139.198 98.5398C139.21 98.4493 139.223 98.3588 139.232 98.2684C139.309 97.5406 139.313 96.7853 139.303 96.0808C139.274 95.3749 139.26 94.7183 139.371 94.17C139.432 93.8959 139.498 93.6478 139.62 93.434C139.74 93.2202 139.905 93.0392 140.132 92.9008C140.146 92.5924 140.157 92.2908 140.164 91.9934C140.166 91.8454 140.169 91.6973 140.172 91.5521C140.169 91.4068 140.161 91.2615 140.154 91.1189C140.125 90.5473 140.083 89.995 140.032 89.4618C140.018 89.3288 140.008 89.1959 139.987 89.0656C139.965 88.9354 139.944 88.8066 139.922 88.6777C139.877 88.4214 139.831 88.1706 139.783 87.9225C139.734 87.6744 139.684 87.4318 139.631 87.1919C139.58 86.9521 139.527 86.7163 139.455 86.4874C138.929 84.6438 138.233 83.0456 137.415 81.5351C136.998 80.7813 136.608 80.0329 136.138 79.2996C135.913 78.9295 135.687 78.558 135.465 78.1783C135.408 78.0838 135.356 77.9878 135.297 77.8946C135.236 77.8014 135.176 77.7068 135.115 77.6122C134.995 77.4231 134.874 77.2326 134.753 77.0393C134.513 76.6528 134.275 76.258 134.04 75.8496C133.783 75.4507 133.526 75.0409 133.274 74.6132C132.792 73.7469 132.215 72.8697 131.684 71.876C131.646 71.7128 131.62 71.5771 131.614 71.4565C131.609 71.3359 131.623 71.2331 131.652 71.1426C131.71 70.9603 131.828 70.8288 131.976 70.715C132.272 70.4847 132.686 70.323 132.957 69.9419L133.534 70.6876L134.072 71.4606L134.611 72.2364C134.792 72.4955 134.977 72.7532 135.137 73.0246L136.139 74.6379C136.314 74.9052 136.455 75.1875 136.612 75.463L137.073 76.2978L136.801 75.1587C136.752 74.9696 136.715 74.7749 136.658 74.5885L136.492 74.0265L136.159 72.8957L135.99 72.3283C135.935 72.1378 135.863 71.9555 135.8 71.769C135.906 71.8581 136.011 71.9596 136.118 72.0733C136.224 72.1871 136.32 72.3159 136.421 72.4516C136.622 72.7244 136.823 73.0314 137.025 73.359C137.225 73.688 137.432 74.032 137.628 74.3857C137.813 74.7448 137.998 75.1066 138.185 75.4575C138.373 75.8071 138.561 76.1456 138.754 76.4554C138.854 76.6089 138.939 76.7611 139.029 76.9036C139.12 77.0462 139.211 77.1791 139.303 77.3011C139.676 77.7904 140.073 78.1057 140.511 78.1153C140.25 77.7438 139.997 77.3546 139.752 76.9516C139.631 76.7501 139.509 76.5445 139.385 76.3375C139.255 76.1333 139.127 75.9249 138.999 75.7139C138.744 75.2917 138.494 74.8572 138.249 74.4131C138.188 74.3021 138.127 74.1897 138.066 74.0786C138.001 73.969 137.934 73.858 137.867 73.7469C137.736 73.5249 137.606 73.3001 137.474 73.0739C137.21 72.623 136.962 72.1569 136.694 71.6964C136.414 71.2413 136.138 70.7808 135.863 70.3175C135.726 70.0858 135.589 69.8528 135.451 69.6198C135.304 69.3937 135.155 69.1661 135.006 68.9386C134.71 68.4849 134.414 68.0312 134.119 67.5789C133.813 67.1334 133.487 66.703 133.173 66.2712C132.853 65.8422 132.548 65.4091 132.201 65.0143C131.863 64.6127 131.527 64.218 131.19 63.8356C131.105 63.7396 131.022 63.645 130.939 63.5505C130.855 63.4559 130.762 63.3695 130.674 63.2791C130.495 63.1022 130.319 62.9282 130.143 62.7555C129.79 62.4128 129.437 62.0852 129.088 61.7741C128.721 61.478 128.356 61.1997 127.994 60.9407C127.63 60.6844 127.278 60.439 126.914 60.2334C126.544 60.0319 126.18 59.8537 125.82 59.7016C126.026 59.9771 126.248 60.2485 126.486 60.5185C126.607 60.6515 126.722 60.7913 126.839 60.9325C126.957 61.0723 127.078 61.2134 127.202 61.3533C127.694 61.9166 128.251 62.4621 128.764 63.0666C129.286 63.6628 129.853 64.2468 130.339 64.8965C130.836 65.5379 131.351 66.1712 131.755 66.8675C131.831 67.2403 131.942 67.646 132.051 68.0476C132.104 68.2491 132.161 68.4479 132.206 68.6453C132.247 68.8454 132.283 69.0414 132.311 69.2264C132.422 69.9693 132.393 70.5546 131.976 70.7136C131.553 70.3216 131.148 69.931 130.761 69.5403C130.353 69.1634 129.956 68.7919 129.576 68.4164C129.387 68.2286 129.201 68.0422 129.017 67.8544C128.824 67.6748 128.632 67.4953 128.446 67.3143C128.071 66.9538 127.709 66.592 127.358 66.2274C126.985 65.8792 126.622 65.5297 126.269 65.1761C126.094 64.9993 125.919 64.8211 125.745 64.6443C125.564 64.4743 125.383 64.303 125.203 64.133C124.844 63.7917 124.492 63.4477 124.145 63.0995L123.059 62.1003L122.523 61.5945C122.34 61.4286 122.15 61.2724 121.964 61.1106C121.593 60.7872 121.22 60.4623 120.846 60.1361C120.461 59.8222 120.066 59.5179 119.675 59.2054C119.479 59.0505 119.282 58.8943 119.085 58.738C118.882 58.5886 118.673 58.446 118.466 58.298C118.05 58.0061 117.633 57.7114 117.208 57.4208C116.769 57.1494 116.325 56.8794 115.875 56.6093C115.762 56.5422 115.65 56.475 115.536 56.4078L115.366 56.3064L115.189 56.2146C114.953 56.094 114.717 55.972 114.478 55.8486C114.239 55.728 113.998 55.6074 113.756 55.4867C113.635 55.4278 113.513 55.3675 113.391 55.3072C113.264 55.2537 113.139 55.2016 113.012 55.1482C112.504 54.9357 111.966 54.6822 111.444 54.4053C110.911 54.1517 110.391 53.8817 109.936 53.6007C109.486 53.3101 109.08 53.0579 108.795 52.7961C108.508 52.537 108.337 52.2821 108.335 52.0505C109.067 52.193 109.253 51.997 109.413 51.775C109.573 51.5543 109.707 51.3062 110.364 51.3542C108.713 51.0663 108.353 51.7571 107.874 52.2533C107.756 52.378 107.63 52.4904 107.478 52.5741C107.327 52.6577 107.145 52.7221 106.917 52.7385C106.689 52.755 106.412 52.7276 106.067 52.6385C105.895 52.5946 105.706 52.5343 105.496 52.4562C105.392 52.4164 105.282 52.3726 105.165 52.3287C105.048 52.2876 104.924 52.241 104.795 52.1903C105.29 51.3034 105.802 50.4084 106.316 49.5407C105.613 50.1342 104.944 50.3165 104.274 50.237C103.608 50.1452 102.913 49.8724 102.18 49.5243C101.997 49.4366 101.811 49.3475 101.623 49.2584C101.435 49.1652 101.239 49.0953 101.043 49.0144C100.65 48.8595 100.245 48.717 99.8309 48.6114C99.6238 48.5607 99.4153 48.5073 99.2012 48.4894C98.9871 48.4689 98.7716 48.4593 98.5562 48.4661C98.1224 48.4798 97.6845 48.5552 97.248 48.7183C96.7489 48.0399 97.0492 47.6026 97.8235 47.3901C98.21 47.2832 98.7119 47.2298 99.2832 47.2229C99.5696 47.2133 99.8671 47.2435 100.177 47.2764C100.487 47.3106 100.807 47.3573 101.129 47.4121C100.779 47.2736 100.461 47.1763 100.17 47.1133C99.8782 47.0516 99.6169 47.0146 99.3694 47.0269C98.8773 47.0393 98.4686 47.1434 98.0793 47.2654C97.8861 47.3285 97.697 47.3901 97.5038 47.4532C97.312 47.5135 97.116 47.5683 96.9088 47.6245C96.4932 47.7287 96.033 47.7794 95.4575 47.704C95.8648 47.323 96.2819 46.9419 96.71 46.5609L97.3578 45.9921C97.5761 45.8098 97.7943 45.6316 98.0168 45.452C97.8333 45.5767 97.6567 45.6809 97.4871 45.7673C97.3161 45.8536 97.1493 45.9345 96.9894 45.9907C96.6669 46.1086 96.3653 46.1579 96.0775 46.1552C95.5034 46.1524 94.9876 45.9194 94.5011 45.6384C93.5335 45.0614 92.6827 44.0512 91.9306 43.6509C91.8347 43.9593 92.1211 44.6022 92.0182 45.1436C91.9682 45.415 91.8222 45.6604 91.4928 45.8262C91.3273 45.9098 91.116 45.9729 90.8463 46.0085C90.5766 46.0483 90.2486 46.0441 89.8496 46.0483C88.4692 45.7727 89.1476 45.1066 88.8084 44.7571C88.7305 45.0737 88.4094 45.5274 87.8561 45.9194C87.3028 46.3334 86.5257 46.7089 85.4914 46.8268C85.2537 46.4224 85.5637 46.0729 85.9516 45.7179C86.338 45.3629 86.8023 44.9969 86.8399 44.557C85.1981 44.7173 83.9164 45.0888 82.6152 44.5501C81.2306 45.1628 81.3474 45.4548 81.5906 45.7494C81.8381 46.0441 82.2106 46.3416 81.453 46.9502C81.1805 46.9611 80.9373 46.9598 80.7204 46.9488C80.5035 46.9337 80.3172 46.9296 80.1504 46.9008C79.8196 46.8501 79.5805 46.7528 79.4095 46.6226C79.0675 46.3608 79.0008 45.9592 79.0147 45.5C79.0286 45.0408 79.1245 44.5241 79.0925 44.0347C79.0592 43.5468 78.8951 43.0862 78.3655 42.7477C78.7644 42.4996 79.1843 42.2528 79.6222 42.0281C80.0628 41.817 80.5174 41.6141 80.9776 41.4195C81.2083 41.3222 81.4391 41.2262 81.6727 41.133C81.9048 41.0384 82.137 40.9466 82.3719 40.8726C82.8404 40.7149 83.3061 40.5655 83.7621 40.4216C84.6712 40.1173 85.547 39.9104 86.313 39.6952C86.6967 39.5882 87.0526 39.4841 87.3751 39.3799C87.6976 39.2881 87.9868 39.2003 88.2314 39.1058C87.9353 39.1455 87.6392 39.1825 87.3431 39.2264L86.4604 39.3854L84.7046 39.7075L82.9683 40.1105L82.105 40.3147C81.8186 40.3846 81.535 40.4737 81.25 40.5532C81.3766 40.0214 80.1171 39.8144 79.2413 39.5458C79.0216 39.4758 78.8298 39.4114 78.6921 39.3347C78.5531 39.2565 78.4683 39.1661 78.4669 39.055C78.4655 38.944 78.5462 38.8097 78.7394 38.648C78.934 38.4903 79.2468 38.3163 79.7028 38.1079C79.4706 38.1216 79.2371 38.1381 79.0022 38.1559C78.8854 38.1655 78.7658 38.1723 78.6491 38.1874C78.5323 38.2039 78.4155 38.2189 78.2973 38.2354C77.8275 38.3012 77.3534 38.3766 76.8752 38.4602C76.6375 38.504 76.397 38.5479 76.1565 38.5918C76.0369 38.6151 75.916 38.6397 75.7964 38.663L75.4392 38.7521C74.9623 38.8728 74.4841 39.0016 74.0045 39.1359C73.7654 39.2045 73.5249 39.2744 73.2844 39.3443C73.1649 39.3813 73.0439 39.4142 72.9258 39.4539L72.5713 39.58C72.0986 39.7486 71.626 39.9241 71.1547 40.105C70.2052 40.4477 69.2919 40.8904 68.3827 41.3222C67.4666 41.7402 66.5964 42.2515 65.7331 42.7408C64.8628 43.2178 64.0482 43.7784 63.2419 44.3089C62.4286 44.8283 61.6766 45.415 60.937 45.9688C60.7535 46.1086 60.57 46.247 60.3879 46.3841C60.2975 46.4526 60.2072 46.5211 60.1168 46.5897C60.0292 46.6623 59.943 46.7336 59.8555 46.8062C59.5107 47.0941 59.1715 47.3792 58.8365 47.6588C59.3439 47.5327 59.8874 47.3435 60.3239 47.2668C60.7632 47.1928 61.1038 47.249 61.1831 47.5642C60.8411 47.8425 60.5575 48.0974 60.2948 48.2907C60.0348 48.4867 59.8026 48.6347 59.5955 48.7444C59.1798 48.9637 58.8573 49.0281 58.5821 49.013C58.3054 48.9952 58.0816 48.9061 57.862 48.8061C57.6409 48.7074 57.4255 48.5991 57.1697 48.5607C56.7346 49.0925 56.4941 49.564 56.3689 50.0027C56.2452 50.4427 56.2313 50.8415 56.2716 51.2513C56.3481 52.0642 56.5733 52.8509 56.3954 53.8214C56.0881 53.953 55.799 54.0818 55.5251 54.2079C55.2596 54.3422 55.0121 54.4766 54.7772 54.6068C54.3073 54.8658 53.8931 55.1112 53.5177 55.3456C53.1354 55.5731 52.8185 55.8157 52.5099 56.0364C52.2026 56.2598 51.9121 56.4709 51.6271 56.6779C51.4839 56.7807 51.3393 56.8821 51.1934 56.9822C51.1197 57.0315 51.046 57.0808 50.9723 57.1316C50.9 57.1836 50.8278 57.2357 50.7541 57.2878C50.4594 57.4948 50.1452 57.7004 49.7921 57.9101C49.439 58.1198 49.0484 58.3323 48.5979 58.5571C48.1614 58.7942 47.6707 59.045 47.0993 59.3192L48.6285 60.1964C47.0604 60.9544 46.7727 61.9029 46.5016 62.8432C46.4348 63.0817 46.3667 63.3174 46.2889 63.5628C46.2166 63.8109 46.1262 64.0617 46.0025 64.3167C45.8788 64.5716 45.7189 64.8307 45.5048 65.0952C45.3978 65.2282 45.2768 65.3611 45.1406 65.4968C45.0725 65.5653 44.9988 65.6325 44.9237 65.7024C44.8501 65.7737 44.7736 65.8463 44.6916 65.919C44.5873 65.9094 44.5275 65.8189 44.5011 65.6709C44.4872 65.5969 44.4817 65.5092 44.4831 65.4091C44.4872 65.3104 44.4984 65.2021 44.515 65.0842C44.5818 64.6155 44.7347 64.011 44.864 63.4614C44.554 64.17 44.2287 64.6155 43.8895 64.9376C43.5628 65.2652 43.2305 65.4708 42.8955 65.6764C42.2366 66.0903 41.5429 66.5056 41.1328 67.9956C41.0382 67.4953 40.9465 66.9881 40.8589 66.4755C40.7783 65.967 40.7157 65.4612 40.6504 64.9444C40.4961 65.2131 40.3404 65.5023 40.1847 65.797C40.029 66.0931 39.8941 66.4056 39.7482 66.7071C39.4618 67.3116 39.181 67.8914 38.9071 68.3437C38.3955 69.2634 37.9006 69.6897 37.4336 68.7494C37.4169 69.3525 37.3432 69.9762 37.2236 70.619C37.1236 71.2701 36.9887 71.9445 36.8163 72.6298C36.7718 72.8012 36.7274 72.9739 36.6829 73.1479C36.6356 73.3206 36.5883 73.4961 36.548 73.6743C36.4632 74.0307 36.3715 74.3898 36.2756 74.7516C36.1796 75.1135 36.0781 75.4781 35.9739 75.8441L35.896 76.1196L35.8279 76.3992C35.782 76.5856 35.7348 76.772 35.6889 76.9598C35.5944 77.334 35.4998 77.7096 35.4053 78.0865L35.2621 78.6512C35.2135 78.839 35.1801 79.0309 35.1398 79.2201C34.9841 79.9808 34.8312 80.7374 34.6991 81.4844C34.5962 82.2383 34.51 82.9812 34.4517 83.7022C34.4378 83.8831 34.4211 84.0613 34.4155 84.2395C34.4127 84.4177 34.41 84.5959 34.4113 84.7713C34.4113 85.1222 34.4211 85.4662 34.4391 85.8021L33.0031 85.2181C33.1727 85.5992 33.2742 86.0392 33.3256 86.523C33.3465 86.7643 33.3757 87.0192 33.3882 87.2838C33.4021 87.5469 33.4063 87.8211 33.4021 88.1007C33.3979 88.3803 33.3868 88.6695 33.3701 88.9628C33.3548 89.2562 33.327 89.555 33.3201 89.8593C33.295 90.4678 33.2589 91.0901 33.2255 91.711C33.1811 92.3306 33.1977 92.9501 33.2116 93.5464C33.2214 93.8452 33.2353 94.1372 33.2561 94.4223C33.2659 94.5648 33.2784 94.7046 33.2923 94.8431C33.2992 94.9116 33.3076 94.9801 33.3145 95.0487C33.3256 95.1158 33.3381 95.183 33.3493 95.2501C33.5425 96.3138 33.8664 97.2047 34.4378 97.7571L33.8567 98.193L34.4781 99.4992L34.7895 100.143L34.9466 100.463L35.1175 100.779L35.8001 102.031L36.1407 102.648L36.3117 102.953C36.3701 103.055 36.434 103.155 36.4952 103.255C36.6245 104.431 36.0962 104.935 35.6152 105.155C35.1356 105.373 34.7019 105.297 35.0314 105.333C35.1926 105.987 35.4067 106.608 35.5916 107.216C35.6847 107.52 35.7765 107.819 35.8668 108.115C35.9558 108.411 36.0406 108.703 36.1435 108.986C36.3395 109.555 36.5258 110.107 36.6996 110.647C36.7885 110.916 36.8664 111.186 36.9581 111.445C37.0499 111.705 37.1402 111.961 37.2292 112.214C37.403 112.721 37.5642 113.217 37.7116 113.704C37.7491 113.826 37.7825 113.948 37.8214 114.065C37.8617 114.185 37.9006 114.303 37.9396 114.419C38.0174 114.653 38.0911 114.886 38.1606 115.117C38.301 115.579 38.4261 116.032 38.5346 116.482C38.561 116.594 38.5874 116.707 38.6138 116.818C38.643 116.927 38.6722 117.037 38.7014 117.145C38.757 117.363 38.8098 117.58 38.8571 117.796C39.4118 117.785 40.0067 118.079 40.6156 118.572C40.9131 118.823 41.2426 119.111 41.5721 119.44C41.9001 119.769 42.2324 120.136 42.5633 120.531C42.8858 120.931 43.2458 121.338 43.5961 121.767C43.9465 122.196 44.2954 122.642 44.6388 123.094C45.0016 123.535 45.3644 123.98 45.7147 124.424C45.8885 124.646 46.0623 124.866 46.2333 125.086C46.3167 125.197 46.4043 125.302 46.4946 125.406C46.5836 125.511 46.6712 125.615 46.7588 125.719C47.116 126.262 47.4789 126.803 47.8459 127.346C48.2309 127.875 48.6313 128.395 49.0303 128.918L49.3319 129.31C49.432 129.442 49.5321 129.572 49.642 129.695L50.287 130.448L50.9376 131.199L51.2657 131.573L51.6118 131.932C52.0733 132.409 52.539 132.886 53.0075 133.36C53.4899 133.821 53.9876 134.267 54.4825 134.717L54.8551 135.053L55.0413 135.221L55.236 135.38L56.0158 136.014C56.5399 136.432 57.0515 136.868 57.6048 137.25C58.1497 137.644 58.6961 138.036 59.2466 138.422L60.9495 139.505L61.3763 139.774C61.5195 139.862 61.6682 139.941 61.8142 140.025L62.6956 140.518L63.5783 141.008C63.873 141.169 64.1803 141.309 64.4805 141.46C66.8772 142.68 69.3934 143.646 71.9401 144.421L72.8966 144.704L73.3748 144.844L73.8586 144.963C74.5036 145.117 75.1472 145.27 75.7895 145.424C76.4359 145.558 77.0865 145.669 77.7329 145.788L78.2167 145.876L78.4586 145.92L78.7033 145.953C79.0286 145.995 79.3525 146.038 79.6778 146.08C80.9692 146.272 82.2704 146.344 83.5535 146.438C84.1986 146.459 84.8422 146.47 85.4803 146.482C86.1184 146.507 86.7565 146.477 87.3904 146.456C87.7073 146.445 88.0229 146.434 88.3385 146.423C88.4956 146.416 88.6526 146.415 88.8097 146.403L89.281 146.363C89.9066 146.308 90.5294 146.253 91.1494 146.198C91.768 146.128 92.3825 146.031 92.9913 145.947C93.2958 145.902 93.6002 145.862 93.9019 145.813C94.2036 145.754 94.5038 145.697 94.8027 145.638C97.2008 145.21 99.5001 144.534 101.69 143.791C102.355 143.612 103.056 143.295 103.762 142.88C104.46 142.434 105.168 141.903 105.868 141.343C106.557 140.744 107.238 140.118 107.911 139.523C108.568 138.887 109.216 138.281 109.865 137.762C108.9 138.014 108.187 138.269 107.594 138.533C106.992 138.773 106.511 139.016 106.035 139.282C105.796 139.415 105.558 139.548 105.31 139.688C105.054 139.814 104.785 139.941 104.487 140.073C103.889 140.328 103.185 140.629 102.226 140.835C101.852 140.855 101.502 140.846 101.172 140.813C101.007 140.796 100.847 140.773 100.691 140.744C100.536 140.714 100.381 140.669 100.233 140.625C99.6363 140.443 99.0997 140.188 98.5826 139.907C98.0668 139.635 97.5636 139.294 97.0395 138.98C96.7781 138.823 96.5098 138.669 96.2318 138.525C96.0928 138.454 95.951 138.384 95.805 138.317C95.7327 138.285 95.6591 138.252 95.584 138.22C95.5089 138.185 95.4339 138.151 95.3574 138.115C95.584 138.384 95.812 138.632 96.0455 138.884C96.2777 139.137 96.5154 139.389 96.7545 139.64C96.5307 139.756 96.3222 139.855 96.1303 139.941C95.9371 140.026 95.7592 140.1 95.5937 140.145C95.2629 140.245 94.9862 140.298 94.7499 140.321C94.2772 140.367 93.9645 140.291 93.6809 140.225C93.5391 140.195 93.4042 140.155 93.2583 140.134C93.1123 140.114 92.9566 140.111 92.7717 140.143C92.4019 140.203 91.9209 140.404 91.1633 140.851L91.2578 138.128C90.7615 138.819 89.844 138.873 88.9487 138.654C88.5011 138.525 88.0604 138.332 87.6726 138.124C87.2847 137.913 86.9483 137.7 86.7092 137.488C86.3422 138.078 85.9599 138.668 85.5651 139.256C85.2885 139.098 85.0229 138.949 84.7699 138.805C84.5197 138.661 84.2848 138.505 84.0637 138.365C83.6203 138.078 83.2324 137.81 82.9029 137.53C82.7375 137.394 82.5888 137.242 82.4567 137.083C82.3232 136.926 82.2051 136.761 82.1036 136.588C81.8992 136.242 81.7588 135.858 81.6866 135.408L81.5322 137.137C81.3793 136.823 80.7607 136.594 79.9961 136.298C79.611 136.158 79.1857 136.02 78.7533 135.878C78.3265 135.719 77.8984 135.549 77.4994 135.38C76.6959 135.056 76.0495 134.63 75.8131 134.221C75.5768 133.806 75.77 133.374 76.625 132.9C76.2649 132.978 75.8701 133.177 75.4044 133.273C75.346 133.285 75.2876 133.295 75.2265 133.303C75.1667 133.308 75.1069 133.313 75.0458 133.313C74.9234 133.314 74.7955 133.306 74.6635 133.285C74.3993 133.241 74.1143 133.144 73.8113 132.964L74.3145 131.31C74.1908 131.288 74.0671 131.267 73.9434 131.246C73.8224 131.217 73.7001 131.187 73.5777 131.158C73.3345 131.098 73.0912 131.033 72.8549 130.965C72.6185 130.896 72.385 130.823 72.1626 130.747C72.05 130.711 71.9443 130.666 71.8428 130.618C71.7399 130.571 71.6413 130.523 71.5453 130.475C70.7794 130.083 70.2414 129.638 70.258 129.063C70.3957 129.085 70.5263 129.098 70.6515 129.1C70.7794 129.098 70.9003 129.087 71.0171 129.068C71.2492 129.031 71.4577 128.963 71.6524 128.876C72.0402 128.702 72.3683 128.447 72.6908 128.19C72.2724 127.945 71.8901 127.75 71.537 127.597C71.195 127.424 70.8836 127.293 70.5945 127.201C70.3053 127.107 70.0412 127.051 69.7965 127.025C69.5518 126.998 69.3391 126.985 69.1334 127.007C68.3188 127.088 67.7502 127.578 67.1983 128.093C66.9217 128.351 66.6464 128.614 66.3406 128.833C66.1876 128.941 66.025 129.041 65.8512 129.12C65.6802 129.195 65.4967 129.253 65.2952 129.283C64.8934 129.344 64.4249 129.303 63.8508 129.105C63.7076 129.055 63.5575 128.995 63.4004 128.925C63.2488 128.85 63.0918 128.76 62.9263 128.66C62.5969 128.46 62.2382 128.212 61.849 127.912L62.6511 127.117C62.462 127.09 62.2646 127.068 62.0783 127.032L61.5153 126.927L60.3726 126.704L60.2266 126.101C60.1821 125.897 60.1446 125.689 60.1057 125.486L59.8819 124.27C59.5872 124.317 59.298 124.325 59.0144 124.3C58.7364 124.27 58.4695 124.2 58.204 124.103C57.9398 124.006 57.6813 123.877 57.4269 123.723C57.299 123.646 57.1738 123.563 57.0487 123.475C56.9236 123.387 56.7985 123.293 56.6845 123.185C56.2188 122.762 55.7726 122.257 55.3361 121.701C54.9315 121.123 54.5409 120.495 54.153 119.852C53.8041 119.188 53.4482 118.509 53.0923 117.833C52.7712 117.141 52.432 116.467 52.0789 115.825C51.755 115.166 51.4005 114.548 50.9987 113.989C50.6276 113.414 50.2119 112.898 49.7226 112.462C49.6545 112.364 49.5933 112.26 49.5405 112.149C49.4904 112.038 49.4529 111.919 49.4195 111.796C49.3528 111.549 49.3097 111.28 49.2833 110.996C49.2319 110.426 49.2193 109.799 49.2597 109.11C49.2722 108.769 49.2819 108.418 49.2777 108.059C49.2763 107.88 49.2708 107.699 49.261 107.516C49.2527 107.334 49.2541 107.145 49.243 106.956C49.2221 106.579 49.179 106.195 49.1026 105.807C49.065 105.612 49.0136 105.418 48.9636 105.219C48.9191 105.019 48.8649 104.817 48.7995 104.613L47.1619 105.252C47.294 104.85 47.3871 104.338 47.458 103.747C47.4858 103.454 47.5372 103.133 47.579 102.8C47.622 102.465 47.661 102.116 47.6985 101.753C47.7166 101.572 47.7347 101.388 47.7527 101.202C47.7805 101.014 47.8083 100.823 47.8361 100.63C47.8917 100.248 47.9473 99.8543 48.0057 99.454C48.053 99.0579 48.1434 98.6522 48.2268 98.2478C48.3102 97.8435 48.3978 97.4391 48.4867 97.0375C48.5868 96.6359 48.7133 96.237 48.8315 95.8464C48.894 95.6518 48.9552 95.4585 49.0178 95.2666C49.0831 95.0747 49.1401 94.8869 49.2221 94.7005C49.3764 94.3277 49.5349 93.9672 49.6989 93.6218C49.8672 93.2764 50.0229 92.9447 50.2286 92.6335C50.6234 92.0112 51.0321 91.463 51.4881 91.0161C51.9649 90.572 52.4654 90.228 52.9978 90.0073C52.863 89.7044 52.749 89.4768 52.6669 89.3137C52.5877 89.1506 52.5265 89.0506 52.4751 88.9999C52.3708 88.897 52.3083 88.9903 52.2332 89.1547C52.1498 89.3178 52.0886 89.5563 51.9413 89.7386C51.7981 89.9209 51.584 90.0512 51.2434 89.9991C51.1628 89.6975 51.0974 89.4124 51.0474 89.1438C51.0126 88.8765 50.9904 88.6257 50.9807 88.3885C50.9626 87.9156 50.9835 87.5031 51.0571 87.1439C51.2323 86.4298 51.5479 85.9213 51.9315 85.5128C52.3375 85.1085 52.8199 84.8042 53.2883 84.4793C53.5261 84.3176 53.7513 84.1476 53.9862 83.9626C54.2239 83.7789 54.4533 83.5747 54.6632 83.3362C54.6577 81.8997 54.349 82.3356 53.9292 82.936C53.7193 83.2334 53.4816 83.5692 53.2452 83.7186C53.0089 83.868 52.7754 83.8351 52.578 83.3759C52.9047 82.899 53.1313 82.4836 53.2828 82.1053C53.3537 81.9148 53.4315 81.7421 53.483 81.5735C53.5372 81.4049 53.5747 81.2445 53.5997 81.0883C53.6512 80.7758 53.654 80.4838 53.6331 80.1946C53.622 80.0493 53.6122 79.9081 53.6025 79.7683C53.59 79.6258 53.5761 79.4832 53.5636 79.3393C53.5372 79.0487 53.5122 78.7485 53.5163 78.4237C53.5191 78.2606 53.5261 78.092 53.5469 77.9152C53.5747 77.7425 53.615 77.5615 53.6679 77.3724C53.7735 76.9927 53.9362 76.5774 54.178 76.1141C54.4436 75.6631 54.7994 75.1711 55.2568 74.6269C55.8143 74.6228 55.792 75.0217 55.6711 75.5137C55.6099 75.7605 55.5237 76.0305 55.4723 76.2882C55.4459 76.417 55.4292 76.5417 55.4278 76.6596C55.4278 76.7775 55.4514 76.8913 55.4917 76.9886C55.5362 75.9537 55.8518 74.7845 56.4245 73.5948C56.4954 73.4454 56.5663 73.2932 56.6386 73.1397C56.7095 72.9862 56.8027 72.8423 56.8861 72.6915C57.0598 72.3927 57.2406 72.0911 57.4296 71.7855C57.5256 71.6333 57.6159 71.4771 57.7202 71.3277C57.8272 71.1796 57.9357 71.0316 58.0441 70.8822C58.2637 70.5848 58.4875 70.2832 58.7128 69.9789C58.8226 69.824 58.9505 69.6829 59.0728 69.5362C59.1965 69.3909 59.3216 69.2443 59.4468 69.099C59.5719 68.9523 59.697 68.8056 59.8235 68.659C59.9514 68.5137 60.0695 68.3602 60.2086 68.2231C60.4783 67.9421 60.7479 67.6611 61.0176 67.3788L61.4194 66.9538L61.8434 66.5509C62.1256 66.2822 62.4036 66.0122 62.6789 65.7422C62.8123 65.6037 62.9583 65.4776 63.1029 65.3502C63.2447 65.2213 63.3879 65.0938 63.5283 64.9664C63.8105 64.7114 64.0816 64.4482 64.3568 64.1974C64.6404 63.9562 64.917 63.7122 65.1839 63.4655C65.3675 63.3627 65.5551 63.2599 65.7442 63.1543L65.886 63.0748L66.0333 63.0022C66.132 62.9528 66.2307 62.9035 66.3308 62.8541C66.7284 62.654 67.1288 62.4457 67.5347 62.2291C67.6348 62.1729 67.7391 62.1222 67.8461 62.0742C67.9518 62.0249 68.0574 61.9755 68.1645 61.9248C68.3758 61.8234 68.5898 61.722 68.8053 61.6192C69.018 61.515 69.2335 61.4095 69.4504 61.3039C69.6728 61.208 69.898 61.112 70.1246 61.0161C71.904 60.2019 73.8613 59.5083 75.8632 58.9326C76.1134 58.8641 76.365 58.7942 76.6166 58.7257C76.8683 58.6571 77.1157 58.5804 77.3743 58.5324C77.8817 58.4227 78.3905 58.3131 78.8993 58.2034C79.0244 58.1719 79.1537 58.1541 79.2816 58.1349L79.6653 58.076C79.9197 58.0362 80.1754 57.9965 80.4298 57.9567C80.9331 57.8635 81.4474 57.8292 81.9521 57.7813C82.2037 57.758 82.4553 57.7347 82.7055 57.7127L82.8918 57.6963L83.0809 57.6908C83.206 57.6881 83.3311 57.6839 83.4562 57.6812C83.7051 57.6757 83.9525 57.6689 84.2 57.6634C84.3223 57.6606 84.4446 57.6579 84.567 57.6552C84.6893 57.6524 84.8102 57.6469 84.9326 57.6552C85.4191 57.6785 85.8987 57.7004 86.3742 57.7223C86.4923 57.7292 86.6091 57.7319 86.7259 57.7443C86.8427 57.758 86.9594 57.773 87.0762 57.7867C87.3084 57.8155 87.5377 57.8443 87.7657 57.8731L87.8505 57.2398C88.0465 57.3235 88.2425 57.3947 88.4358 57.455C88.6304 57.5195 88.825 57.5866 89.0183 57.636C89.4061 57.7374 89.7912 57.8005 90.179 57.832L90.325 57.8429L90.471 57.8608C90.5683 57.8717 90.6656 57.8813 90.7643 57.8882C90.9603 57.9033 91.1563 57.9128 91.3537 57.9156C91.7485 57.9252 92.1475 57.9019 92.5507 57.9197C92.9538 57.9252 93.3625 57.9224 93.7768 57.9197H93.9325L94.0868 57.9293C94.1897 57.9361 94.2939 57.943 94.3982 57.9499C94.6067 57.9649 94.8152 57.98 95.0238 57.9992C95.2337 58.0184 95.4436 58.0403 95.6549 58.0664C95.8648 58.0993 96.0733 58.1486 96.2832 58.1952C96.7017 58.2966 97.1201 58.409 97.5316 58.5721C97.0312 58.1774 96.514 57.7963 95.9844 57.3975L95.9691 57.403Z" fill="#7CC9E3"/>
<path d="M143.043 79.7135C143.439 79.316 143.832 78.9103 144.224 78.4977C143.846 77.7603 143.396 77.053 142.972 76.3457L142.328 75.293L141.634 74.2705C141.54 74.8311 141.557 75.278 141.632 75.6837C141.696 76.0921 141.832 76.4554 142.003 76.8309C142.174 77.2065 142.378 77.5958 142.577 78.055C142.762 78.5182 142.925 79.0569 143.043 79.7135Z" fill="#7CC9E3"/>
<path d="M138.413 80.0466L139.075 81.0472C139.293 81.3843 139.528 81.7188 139.724 82.0683C139.648 81.7654 139.546 81.4693 139.448 81.1733L139.154 80.2837L138.861 79.3955C138.754 79.1022 138.637 78.813 138.525 78.521L138.484 79.2831C138.475 79.5353 138.437 79.793 138.413 80.0466Z" fill="#7CC9E3"/>
<path d="M98.552 43.5371L99.1067 43.8565C102.064 43.914 105.051 44.2197 108.027 44.7789C104.886 44.0785 101.709 43.6646 98.552 43.5371Z" fill="#7CC9E3"/>
<path d="M42.1907 62.6143C42.1837 62.2771 42.2546 61.9495 42.3659 61.6302C42.4812 61.3122 42.6258 60.9942 42.8051 60.6967C43.1541 60.095 43.5322 59.507 43.6754 58.8765L42.5952 60.938L41.6207 63.0365L42.1893 62.617L42.1907 62.6143Z" fill="#7CC9E3"/>
<path d="M27.3702 105.495C28.1167 105.846 28.5309 106.24 28.7631 106.599C28.9967 106.957 29.0411 107.282 29.0731 107.471C29.0995 107.662 29.087 107.722 29.1802 107.553C29.2288 107.468 29.2983 107.327 29.4234 107.116C29.5499 106.905 29.7251 106.624 29.967 106.268C29.4776 104.896 29.0898 104.856 28.6908 105.092C28.2932 105.325 27.8901 105.837 27.3688 105.495H27.3702Z" fill="#7CC9E3"/>
<path d="M34.0151 114.993C33.783 114.218 33.4994 113.653 33.1894 113.187C33.0364 112.954 32.8682 112.748 32.7111 112.551C32.5554 112.352 32.3956 112.167 32.2357 111.981C32.1704 112.282 32.1342 112.543 32.1245 112.769C32.1161 112.994 32.1426 113.181 32.1815 113.343C32.2621 113.665 32.4192 113.879 32.6166 114.045C33.0114 114.378 33.5689 114.522 34.0179 114.993H34.0151Z" fill="#7CC9E3"/>
<path opacity="0.99" fill-rule="evenodd" clip-rule="evenodd" d="M131.361 41.255V39.8844H129.971C127.9 39.4567 127.089 38.2231 127.538 36.1835C125.842 36.6962 124.244 36.4906 122.742 35.5667C121.812 34.8046 121.348 33.8218 121.352 32.6198C119.773 33.7547 118.15 33.8465 116.486 32.8939C115.716 31.9248 115.461 30.8283 115.722 29.6043C115.957 28.2692 116.304 26.9671 116.764 25.6978C115.932 25.2894 115.747 24.6959 116.208 23.9159C117.136 23.5335 117.922 23.7158 118.572 24.4642C121.356 24.4135 122.631 23.0195 122.395 20.2836C121.983 19.1008 121.219 18.2098 120.101 17.6108C117.875 16.3772 115.512 16.0112 113.011 16.5143C111.749 16.8021 110.752 17.4642 110.022 18.5018C109.177 20.1068 109.64 21.0211 111.412 21.2431C111.809 21.202 112.202 21.1568 112.594 21.1061C112.739 21.7955 112.506 22.3657 111.899 22.8194C110.145 23.7583 108.499 23.5979 106.964 22.3397C105.9 20.6551 105.994 19.0103 107.242 17.4052C109.128 15.5288 111.422 14.6598 114.123 14.8009C118.141 14.8297 121.593 16.2004 124.48 18.913C126.409 21.642 125.97 23.8118 123.159 25.4237C121.858 25.8966 120.514 26.1022 119.128 26.0405C119.089 27.4427 119.158 28.8134 119.336 30.1525C119.406 30.635 119.662 30.9777 120.101 31.1805C120.959 31.3108 121.747 31.1271 122.464 30.6323C124.084 28.8668 126.076 28.2267 128.442 28.7133C129.857 29.1519 130.483 30.0895 130.319 31.5232C129.687 32.7486 128.668 33.2969 127.26 33.168C126.282 33.1269 125.331 32.9432 124.41 32.6198C124.052 33.7177 124.423 34.4715 125.522 34.8814C127.116 35.3447 128.506 35.0239 129.693 33.9219C131.463 32.8391 133.316 32.6554 135.254 33.3736C135.698 33.7218 136.139 34.0645 136.574 34.4016C138.295 33.2681 140.126 32.3305 142.065 31.5917C143.228 31.0695 144.34 31.1381 145.402 31.7973C145.802 32.3182 145.872 32.8665 145.61 33.4422C145.231 34.2728 144.651 34.9362 143.873 35.4296C141.027 37.3582 137.923 38.7289 134.559 39.5417C133.434 40.8027 133.712 41.4647 135.393 41.5292C135.384 41.9719 135.176 42.2926 134.767 42.4886C134.641 42.331 134.524 42.3529 134.42 42.5572C133.036 42.9026 132.017 42.4681 131.361 41.255ZM127.608 29.8784C128.623 30.0497 128.716 30.4842 127.886 31.1805C127.007 31.6534 126.081 31.7672 125.105 31.5232C125.812 30.7652 126.646 30.217 127.608 29.8784ZM136.366 37.9654C136.273 37.9654 136.227 37.9202 136.227 37.8283C138.005 36.3795 139.951 35.1678 142.065 34.196C142.377 34.0617 142.701 33.9932 143.039 33.9904C143.059 34.1344 143.036 34.2714 142.969 34.4016C142.546 34.8718 142.06 35.2611 141.509 35.5667C139.863 36.5152 138.148 37.3157 136.366 37.9654ZM134.698 34.6758C134.809 34.8869 134.855 35.1158 134.837 35.3611C133.755 36.4056 132.736 37.5254 131.778 38.7193C130.054 38.6617 129.661 37.9078 130.597 36.4577C131.643 35.0842 133.01 34.4907 134.698 34.6758Z" fill="#B9292C"/>
<path opacity="0.99" fill-rule="evenodd" clip-rule="evenodd" d="M118.711 18.2276C119.332 18.2043 119.912 18.3414 120.448 18.6388C120.542 18.7759 120.542 18.913 120.448 19.05C119.578 19.634 118.79 20.3193 118.085 21.1061C116.695 22.9332 115.305 24.7617 113.915 26.5888C112.452 28.3994 110.575 29.5193 108.284 29.9469C106.708 30.0607 105.225 29.7413 103.836 28.9875C101.844 27.6264 101.474 25.9816 102.724 24.053C104.056 23.1758 105.191 23.3814 106.13 24.6698C106.228 24.9988 106.205 25.3182 106.06 25.6293C104.84 26.2269 104.655 27.026 105.504 28.028C106.408 28.5009 107.289 28.4556 108.145 27.8909C108.859 27.3248 109.531 26.708 110.161 26.0405C111.561 24.1106 113.068 22.2602 114.679 20.4893C115.825 19.3763 117.169 18.6224 118.711 18.2276Z" fill="#B9292C"/>
<path opacity="0.04" fill-rule="evenodd" clip-rule="evenodd" d="M134.698 34.6758C134.857 34.7155 134.951 34.8293 134.976 35.0185C134.971 35.1651 134.926 35.2789 134.837 35.3611C134.855 35.1158 134.809 34.8869 134.698 34.6758Z" fill="#EBB6B6"/>
<path opacity="0.99" fill-rule="evenodd" clip-rule="evenodd" d="M146.792 37.8283C150.637 37.7612 153.348 39.4512 154.924 42.8999C155.423 45.3218 154.427 46.4417 151.936 46.258C150.957 45.9318 150.238 45.315 149.781 44.4076C149.688 44.0882 149.688 43.7675 149.781 43.4481C149.881 43.3714 149.998 43.3261 150.128 43.3111C150.753 43.6935 151.402 43.762 152.075 43.5167C152.727 42.9204 152.796 42.2584 152.283 41.5292C150.932 39.946 149.403 39.7171 147.696 40.8438C147.397 41.2043 147.212 41.6155 147.139 42.0774C147.298 44.3117 147.39 46.5513 147.418 48.7938C147.087 50.3372 146.183 51.4104 144.707 52.0149C141.447 52.8784 138.69 51.9875 136.435 49.342C135.372 48.092 134.793 46.6528 134.698 45.0244C134.66 43.5907 135.216 42.4475 136.366 41.5977C138.224 40.7081 139.569 41.1879 140.397 43.0369C140.449 43.3124 140.379 43.5866 140.189 43.8593C139.724 44.0704 139.238 44.2308 138.729 44.3391C137.478 45.0011 136.991 46.0291 137.269 47.4231C138.055 49.5339 139.56 50.4249 141.787 50.0959C143.282 49.4133 143.977 48.2482 143.873 46.6007C143.709 45.2094 143.57 43.8155 143.456 42.4201C143.432 40.0625 144.544 38.5329 146.792 37.8283Z" fill="#234C93"/>
<path opacity="0.18" fill-rule="evenodd" clip-rule="evenodd" d="M136.227 37.8284C136.227 37.92 136.273 37.9652 136.366 37.9652C136.261 38.1116 136.122 38.1348 135.949 38.0336C136.024 37.9351 136.117 37.8667 136.227 37.8284Z" fill="#EBBFC1"/>
<path opacity="0.48" fill-rule="evenodd" clip-rule="evenodd" d="M129.971 39.8843H131.361V41.255C131.225 40.8725 131.179 40.4613 131.222 40.0213C130.776 40.0638 130.359 40.0186 129.971 39.8843Z" fill="#D98184"/>
<path opacity="0.99" fill-rule="evenodd" clip-rule="evenodd" d="M147.904 51.261C149.871 51.0321 151.562 51.5804 152.978 52.9058C153.95 54.2477 153.787 55.4128 152.492 56.4011C151.371 56.7245 150.305 56.5875 149.294 55.9899C148.585 55.5416 147.936 55.0167 147.348 54.4136C146.369 55.5718 146.554 56.5532 147.904 57.3605C149.214 58.1816 150.604 58.3406 152.075 57.8403C153.947 57.8389 155.5 58.5242 156.732 59.8963C157.297 60.631 157.484 61.4534 157.288 62.3635C157.215 62.7089 157.03 62.9831 156.732 63.1859C156.807 64.118 156.366 64.6443 155.411 64.7622C154.299 64.8074 153.187 64.854 152.075 64.8993C151.73 65.1652 151.706 65.4626 152.005 65.7902C152.453 65.967 152.87 66.1959 153.256 66.4755C153.319 66.7373 153.202 66.8977 152.909 66.9553C151.039 67.1444 149.881 66.344 149.433 64.5566C149.485 64.2879 149.578 64.0371 149.711 63.8027C148.057 63.031 147.431 61.7741 147.835 60.0334C148.039 59.6537 148.293 59.311 148.599 59.0053C146.818 58.712 145.452 57.8211 144.498 56.3325C143.761 54.3985 144.294 52.9141 146.097 51.8778C146.707 51.6489 147.31 51.4433 147.904 51.261ZM149.294 53.317C150.141 53.2677 150.975 53.3362 151.797 53.5226C152.108 53.9654 151.969 54.2847 151.379 54.4821C150.251 54.7467 149.278 54.4944 148.46 53.7282C148.751 53.5884 149.029 53.4514 149.294 53.317ZM154.577 61.9523C154.007 62.0359 153.451 62.1264 152.909 62.2264C152.168 62.3101 151.449 62.4924 150.754 62.7747C149.764 62.1634 149.74 61.5 150.684 60.7872C152.154 59.9635 153.683 59.8264 155.272 60.376C155.632 60.5844 155.747 60.8818 155.619 61.267C155.241 61.4575 154.847 61.6179 154.438 61.7467C154.516 61.7988 154.562 61.8673 154.577 61.9523Z" fill="#274E94"/>
<path opacity="0.97" fill-rule="evenodd" clip-rule="evenodd" d="M27.6551 53.5911C29.4582 53.942 31.2654 54.2846 33.0768 54.6191C33.2908 54.6588 33.4771 54.7507 33.6328 54.8932C33.3325 55.3263 32.985 55.7142 32.5902 56.0583C32.2746 55.95 31.9507 55.8582 31.6171 55.7842C31.043 56.2735 30.6037 56.867 30.2964 57.566C30.4216 57.858 30.5842 58.1321 30.783 58.3884C30.7566 58.9888 30.5022 59.4905 30.0184 59.8962C28.9758 58.2966 27.9332 56.6984 26.8905 55.0988C26.9906 54.5368 27.245 54.0338 27.6551 53.5911ZM28.6282 55.3729C29.1732 55.2811 29.7292 55.3496 30.2964 55.5785C30.0587 55.9336 29.8043 56.2762 29.5318 56.6066C29.2955 56.1378 28.9939 55.7266 28.6282 55.3729Z" fill="#2F5297"/>
<path opacity="0.98" fill-rule="evenodd" clip-rule="evenodd" d="M25.5699 58.1143C28.5226 58.0772 29.6125 59.4479 28.8368 62.2263C28.4294 63.0775 27.9192 63.8547 27.3076 64.5564C25.8132 63.6943 24.3076 62.8486 22.7896 62.0207C22.7173 61.9439 22.67 61.8521 22.6505 61.7466C23.1343 60.9022 23.6209 60.0579 24.1102 59.2108C24.5231 58.7242 25.0096 58.3596 25.5699 58.1143ZM25.4309 59.622C27.7274 59.6056 28.3293 60.5883 27.2381 62.569C26.2246 62.1824 25.2515 61.6808 24.3187 61.0612C24.6176 60.5171 24.9874 60.0373 25.4309 59.622Z" fill="#2F5397"/>
<path opacity="0.42" fill-rule="evenodd" clip-rule="evenodd" d="M154.577 61.9521C154.086 62.2148 153.53 62.3065 152.909 62.2258C153.451 62.1259 154.007 62.0356 154.577 61.9521Z" fill="#A8BAD5"/>
<path opacity="0.98" fill-rule="evenodd" clip-rule="evenodd" d="M21.2604 64.6936C23.2455 64.8266 25.239 64.8718 27.2381 64.8307C27.1505 65.3022 26.9642 65.7353 26.682 66.1328C26.2121 66.1575 25.7492 66.226 25.2919 66.3384C25.0514 66.9484 24.7733 67.5432 24.4578 68.1203C24.7942 68.4506 25.0722 68.8166 25.2919 69.2168C25.214 69.6774 25.0277 70.0886 24.7358 70.4505C23.3943 69.1044 22.0736 67.7338 20.7738 66.3384C20.7293 65.7367 20.892 65.1884 21.2604 64.6936ZM22.5115 66.3384C23.0412 66.1822 23.5972 66.1589 24.1797 66.2699C24.0073 66.6208 23.8225 66.9634 23.6237 67.2979C23.2497 66.9744 22.8799 66.655 22.5115 66.3384Z" fill="#2B5096"/>
<path opacity="0.99" fill-rule="evenodd" clip-rule="evenodd" d="M167.783 76.8926C167.813 76.6623 167.721 76.5252 167.505 76.4814C166.318 76.1908 165.113 76.0085 163.891 75.9331C163.083 75.7974 162.249 75.7522 161.389 75.796C161.355 75.9728 161.403 76.1099 161.528 76.2072C161.947 77.2421 162.434 78.2468 162.987 79.2227C165.741 79.442 168.267 80.2877 170.564 81.7585C171.852 82.781 172.2 84.0365 171.606 85.5278C170.722 86.4722 169.634 86.8149 168.339 86.5559C165.957 85.9665 164.149 84.6191 162.918 82.5124C161.116 82.2451 159.355 82.4054 157.635 82.9921C156.99 83.2758 156.782 83.7556 157.01 84.4313C157.264 84.6821 157.52 84.9343 157.774 85.1852C159.095 85.7842 160.392 86.4243 161.667 87.1041C162.308 87.6222 162.818 88.239 163.196 88.9545C164.624 89.7632 164.971 90.905 164.238 92.3812C163.283 93.3736 162.102 93.8766 160.694 93.889C161.462 94.8896 162.39 95.1171 163.474 94.5743C164.393 94.7045 164.949 95.2076 165.142 96.0821C165.092 96.5193 164.861 96.8154 164.447 96.973C163.794 97.0977 163.168 97.0292 162.57 96.7674C162.401 97.6748 162.563 98.5191 163.057 99.3032C162.77 100.084 162.214 100.359 161.389 100.126C160.507 99.5088 159.581 98.9605 158.608 98.4808C158.123 98.2615 157.637 98.2382 157.149 98.4122C157.053 98.696 157.076 98.9701 157.218 99.2346C158.92 100.01 159.662 101.313 159.442 103.141C160.393 102.897 161.366 102.805 162.362 102.867C163.785 103.321 164.318 104.258 163.96 105.677C163.39 106.141 162.765 106.21 162.084 105.882C161.618 105.652 161.201 105.356 160.833 104.991C160.09 105.357 159.348 105.723 158.608 106.088C158.482 106.439 158.343 106.782 158.191 107.116C160.308 108.391 161.305 110.241 161.18 112.667C160.659 114.434 159.57 114.959 157.913 114.244C157.121 113.573 156.634 112.728 156.454 111.708C156.384 110.932 156.36 110.156 156.384 109.378C154.915 109.48 154.289 110.256 154.507 111.708C154.696 112.4 154.997 113.039 155.411 113.627C155.104 114.104 154.733 114.126 154.299 113.695C152.977 112.433 152.49 110.903 152.839 109.104C153.529 106.991 154.988 106.169 157.218 106.636C157.195 106.455 157.24 106.295 157.357 106.157C154.808 105.404 153.858 103.736 154.507 101.154C154.77 100.507 155.165 99.9584 155.689 99.5088C154.61 98.234 154.61 96.9785 155.689 95.7394C156.68 95.2734 157.653 95.3186 158.608 95.8765C159.227 96.2575 159.807 96.692 160.346 97.1786C160.566 96.7002 160.82 96.2424 161.111 95.8079C160.317 95.1802 159.668 94.4263 159.164 93.5463C156.716 92.9377 155.326 91.4067 154.994 88.9545C155.055 87.6675 155.657 86.7299 156.801 86.1447C155.542 85.6279 154.591 84.7836 153.951 83.6089C153.504 81.9093 154.129 80.6989 155.828 79.9766C157.632 79.3954 159.487 79.1213 161.389 79.1542C160.912 78.1344 160.449 77.1064 159.998 76.0702C158.436 76.0126 156.861 75.8975 155.272 75.7275C152.141 75.2025 150.682 73.3973 150.893 70.3133C151.207 69.2318 151.924 68.5698 153.048 68.3258C154.741 68.1202 156.223 68.578 157.496 69.6965C158.416 70.5806 159.205 71.562 159.859 72.6435C161.982 72.7764 164.067 73.1191 166.115 73.6715C166.673 73.8551 167.181 74.106 167.644 74.4254C167.653 74.4994 167.699 74.546 167.783 74.5624C167.965 74.0854 167.965 73.629 167.783 73.1917C167.692 71.5264 166.997 70.1776 165.698 69.1482C164.74 68.6109 163.883 68.7247 163.126 69.4909C163.033 69.765 163.033 70.0392 163.126 70.3133C163.314 70.7451 163.568 71.111 163.891 71.4099C163.876 71.5387 163.83 71.6525 163.752 71.7525C161.429 72.0664 160.132 71.0617 159.859 68.737C160.054 67.1745 160.934 66.215 162.501 65.8586C163.777 65.6544 164.935 65.9285 165.976 66.681C167.404 67.9201 168.355 69.4512 168.826 71.2728C169.146 72.7888 169.331 74.2965 169.382 75.796C170.382 76.809 170.59 77.9055 170.008 79.0857C169.04 79.5572 168.367 79.283 167.992 78.2632C167.825 77.8205 167.756 77.3641 167.783 76.8926ZM154.16 70.3133C156.021 70.3517 157.342 71.1741 158.122 72.7805C156.761 72.7572 155.44 72.5064 154.16 72.0267C153.42 71.4318 153.42 70.8602 154.16 70.3133ZM164.586 82.6494C164.633 82.5343 164.726 82.4891 164.864 82.5124C166.082 82.6631 167.24 83.0058 168.339 83.5404C168.687 83.7007 168.941 83.9516 169.104 84.2942C169.199 84.4697 169.176 84.6301 169.035 84.774C168.327 85.0399 167.632 84.9947 166.949 84.6369C166.008 84.1435 165.221 83.4801 164.586 82.6494ZM161.111 88.8175C161.156 88.9093 161.204 88.9998 161.25 89.0916C160.688 89.289 160.201 89.6097 159.79 90.0511C159.431 90.6117 159.153 91.2052 158.956 91.833C157.935 91.5342 157.263 90.8954 156.94 89.914C156.919 89.2273 157.243 88.7928 157.913 88.6119C159 88.3213 160.067 88.3898 161.111 88.8175ZM161.389 90.5994C162.014 90.5528 162.269 90.8269 162.153 91.4218C161.601 91.8261 160.976 92.0098 160.276 91.97C160.396 91.3053 160.766 90.8488 161.389 90.5994ZM156.245 101.428C157.563 101.494 158.211 102.179 158.191 103.484C157.297 103.641 156.533 103.414 155.897 102.798C155.631 102.241 155.746 101.784 156.245 101.428ZM157.496 109.652C158.61 110.053 159.42 110.784 159.929 111.845C160.04 112.218 159.901 112.447 159.512 112.53C158.225 112.007 157.553 111.047 157.496 109.652Z" fill="#B9292C"/>
<path opacity="0.97" fill-rule="evenodd" clip-rule="evenodd" d="M19.4532 69.0798C21.1478 69.6829 22.8632 70.2312 24.5968 70.7246C24.5731 71.2976 24.3882 71.8006 24.0407 72.2324C23.4068 72.0172 22.7812 71.7883 22.164 71.5471C21.8151 72.3023 21.5843 73.0781 21.4689 73.8772C22.0347 74.1089 22.6144 74.3145 23.2066 74.494C23.2956 74.9683 23.2038 75.4247 22.9286 75.8647C21.1937 75.4768 19.4782 74.9751 17.785 74.3569C17.696 73.8827 17.7878 73.4263 18.063 72.9863C18.7345 73.0164 19.3837 73.1754 20.0092 73.466C20.3137 72.7464 20.5917 72.0158 20.8433 71.2729C20.1775 70.9864 19.5296 70.6904 18.8971 70.382C19.0167 69.9118 19.2016 69.4773 19.4532 69.0798Z" fill="#2F5297"/>
<path opacity="0.21" fill-rule="evenodd" clip-rule="evenodd" d="M167.783 73.1919C167.965 73.6291 167.965 74.0856 167.783 74.5626C167.699 74.5461 167.653 74.4995 167.644 74.4255C167.781 74.0431 167.826 73.6319 167.783 73.1919Z" fill="#D78388"/>
<path opacity="0.17" fill-rule="evenodd" clip-rule="evenodd" d="M32.2427 74.6995C32.3358 74.8818 32.4276 75.0654 32.5207 75.2477C32.5207 75.3396 32.5666 75.3848 32.6597 75.3848C32.5944 75.5781 32.4554 75.6685 32.2427 75.6589V74.6995Z" fill="#C6D7EB"/>
<path opacity="0.32" fill-rule="evenodd" clip-rule="evenodd" d="M163.891 75.933C163.043 75.8482 162.256 75.9398 161.528 76.2066C161.403 76.1095 161.355 75.9727 161.389 75.7962C162.249 75.7524 163.083 75.7975 163.891 75.933Z" fill="#CD6268"/>
<path opacity="0.98" fill-rule="evenodd" clip-rule="evenodd" d="M17.507 75.7961C17.8781 75.8551 18.2479 75.9236 18.6191 76.0017C18.683 76.0579 18.7289 76.1265 18.7581 76.2073C17.8893 77.149 17.6807 78.2003 18.1325 79.3599C19.1752 80.3413 20.101 80.2508 20.9129 79.0858C21.0727 78.6896 21.1422 78.2784 21.1214 77.8522H20.4263C20.4944 78.188 20.379 78.4155 20.0788 78.5375C19.7521 78.4744 19.4504 78.3607 19.1752 78.1948C19.3601 77.5547 19.5463 76.916 19.7312 76.2759C20.5751 76.3472 21.4091 76.5062 22.2335 76.7556C22.5533 78.1222 22.3447 79.401 21.6079 80.5935C20.3415 81.7353 18.975 81.8491 17.507 80.9362C16.5116 79.8547 16.2795 78.6211 16.8119 77.2354C17.026 76.7433 17.2581 76.2635 17.507 75.7961Z" fill="#305398"/>
<path opacity="0.98" fill-rule="evenodd" clip-rule="evenodd" d="M17.0899 82.1013C17.8517 82.0986 18.4314 82.4193 18.8276 83.0608C19.6659 82.5413 20.5695 82.2453 21.5384 82.1699C21.4355 82.6482 21.3202 83.128 21.1909 83.6091C20.5264 83.8956 19.8549 84.1697 19.1751 84.4315C18.9541 84.6604 18.8624 84.9345 18.8971 85.2539C19.556 85.2813 20.2052 85.3731 20.8433 85.528C20.8892 85.6199 20.9365 85.7103 20.9823 85.8022C20.8975 86.1654 20.828 86.53 20.7738 86.8987C18.9972 86.7822 17.2122 86.5533 15.4217 86.2134C15.3383 85.2978 15.4078 84.3835 15.6302 83.472C15.8527 82.7154 16.3392 82.259 17.0899 82.1013ZM17.785 83.8832V84.9798H17.2289C17.0037 84.9057 16.7729 84.8605 16.5338 84.8427C16.5255 83.9339 16.9425 83.6146 17.785 83.8832Z" fill="#2D5196"/>
<path opacity="0.12" fill-rule="evenodd" clip-rule="evenodd" d="M164.864 82.5121C164.726 82.4889 164.633 82.534 164.586 82.6489C164.476 82.6106 164.383 82.5422 164.308 82.4437C164.526 82.3384 164.711 82.3616 164.864 82.5121Z" fill="#E8B4B7"/>
<path opacity="0.14" fill-rule="evenodd" clip-rule="evenodd" d="M17.785 83.8831C17.9212 84.2655 17.9671 84.6767 17.924 85.1167C17.6585 85.155 17.4263 85.1098 17.2289 84.9796H17.785V83.8831Z" fill="#AEBED8"/>
<path opacity="0.98" fill-rule="evenodd" clip-rule="evenodd" d="M15.0047 87.5839C16.3072 87.5523 17.6056 87.6209 18.8971 87.7895C19.4518 87.9265 19.8925 88.2226 20.2178 88.6804C20.7127 89.8893 20.6668 91.0764 20.0787 92.2442C19.5394 92.8788 18.8443 93.1982 17.9935 93.2036C16.9175 93.1324 15.8527 93.0405 14.7961 92.9295C14.7864 92.41 14.8795 91.907 15.0742 91.4218C16.0667 91.515 17.0621 91.6068 18.063 91.6959C19.1877 91.4122 19.5352 90.7268 19.1056 89.6399C18.9805 89.4754 18.8179 89.3616 18.6191 89.2972C17.4625 89.1752 16.3045 89.0848 15.1437 89.0231C15.0102 88.5584 14.9643 88.0787 15.0047 87.5839Z" fill="#2D5296"/>
<path opacity="0.51" fill-rule="evenodd" clip-rule="evenodd" d="M161.111 88.8176C161.522 88.8901 161.568 88.9818 161.25 89.0913C161.204 88.9996 161.156 88.9093 161.111 88.8176Z" fill="#E4A4A7"/>
<path opacity="0.98" fill-rule="evenodd" clip-rule="evenodd" d="M17.0899 97.5899V95.6709C16.4602 95.6271 15.8568 95.6737 15.2827 95.808H14.8657C14.8142 95.3118 14.8142 94.8321 14.8657 94.3688C16.6312 94.2605 18.3925 94.1467 20.1483 94.0261C20.2303 94.0549 20.2998 94.1001 20.3568 94.1632C20.4263 94.6635 20.4499 95.1665 20.4263 95.6709C19.684 95.6476 18.9416 95.6709 18.2021 95.7395C18.3369 96.5262 18.3842 97.3267 18.3411 98.1382C19.0375 98.0806 19.7326 98.0573 20.4263 98.0696C20.5598 98.5343 20.6056 99.014 20.5653 99.5088C18.7623 99.6624 16.9551 99.7309 15.1437 99.7144C15.0102 99.2498 14.9644 98.77 15.0047 98.2752C15.7025 98.2601 16.3976 98.2135 17.0899 98.1382V97.5899Z" fill="#2A5095"/>
<path opacity="0.13" fill-rule="evenodd" clip-rule="evenodd" d="M15.2827 95.8081C15.8568 95.6738 16.4602 95.6272 17.0899 95.671V97.59C16.9537 97.0239 16.9064 96.429 16.9509 95.8081H15.2827Z" fill="#9BAFCF"/>
<path opacity="0.96" fill-rule="evenodd" clip-rule="evenodd" d="M17.924 102.799C18.854 102.738 19.2016 103.149 18.9666 104.032C18.5037 104.58 18.0394 104.58 17.5765 104.032C17.4277 103.539 17.5431 103.127 17.924 102.799Z" fill="#37599B"/>
<path opacity="0.98" fill-rule="evenodd" clip-rule="evenodd" d="M20.9824 106.911C21.4536 107.186 21.8012 107.597 22.025 108.144C22.4128 109.183 22.4587 110.233 22.164 111.297C21.0255 112.84 19.6117 113.183 17.924 112.325C16.7118 111.175 16.2947 109.781 16.6729 108.144C17.0343 108.01 17.4041 107.918 17.785 107.87C17.7349 108.705 17.8045 109.527 17.9935 110.337C18.6247 111.241 19.4351 111.446 20.4263 110.954C21.1631 110.315 21.3021 109.562 20.8433 108.693C20.6279 108.562 20.3971 108.517 20.1483 108.555C20.4638 109.363 20.1858 109.705 19.3142 109.583C18.9875 108.915 18.8026 108.206 18.7581 107.459C19.5352 107.359 20.2776 107.175 20.9824 106.911Z" fill="#325498"/>
<path opacity="0.97" fill-rule="evenodd" clip-rule="evenodd" d="M22.9286 112.667C23.3526 113.077 23.5152 113.58 23.4151 114.175C22.8076 115.306 22.1821 116.425 21.5384 117.533C22.5046 117.322 23.4541 117.026 24.3883 116.642C24.7275 117.098 24.8901 117.577 24.8748 118.082C23.1733 118.718 21.4592 119.266 19.7312 119.726C19.4435 119.332 19.3267 118.897 19.3837 118.424C20.0023 117.226 20.6751 116.061 21.3994 114.929C20.3582 115.264 19.2919 115.56 18.202 115.82C18.1381 115.45 18.0463 115.084 17.924 114.723C17.9393 114.595 17.9852 114.48 18.063 114.381C19.7034 113.819 21.3257 113.247 22.9286 112.667Z" fill="#2D5196"/>
<path opacity="0.97" fill-rule="evenodd" clip-rule="evenodd" d="M25.0138 118.972H25.5699C25.6672 119.393 25.8062 119.804 25.9869 120.206C24.3354 120.963 22.6672 121.693 20.9824 122.399C20.6737 122.041 20.443 121.63 20.2873 121.165C20.3165 121.085 20.3623 121.016 20.4263 120.96C21.968 120.291 23.4972 119.628 25.0138 118.972Z" fill="#315398"/>
<path opacity="0.98" fill-rule="evenodd" clip-rule="evenodd" d="M21.2604 123.359C21.6358 123.138 22.0528 123.001 22.5116 122.948C24.0866 122.819 25.6617 122.75 27.2381 122.742C27.3952 122.982 27.5342 123.234 27.6552 123.496C26.3595 125.047 25.0152 126.555 23.6237 128.019C23.3748 127.642 23.1427 127.254 22.9286 126.854C23.6181 125.945 24.3591 125.078 25.1529 124.25C24.1297 124.237 23.1107 124.306 22.0945 124.455C21.6177 124.251 21.3397 123.885 21.2604 123.359Z" fill="#305397"/>
<path opacity="0.31" fill-rule="evenodd" clip-rule="evenodd" d="M22.5116 122.948C22.0528 123.001 21.6358 123.138 21.2604 123.358C21.1353 123.261 21.088 123.124 21.1214 122.948H22.5116Z" fill="#819BC3"/>
<path opacity="0.97" fill-rule="evenodd" clip-rule="evenodd" d="M28.6283 125.963C29.0926 126.241 29.4165 126.652 29.6014 127.197C28.0375 128.093 26.4846 129.007 24.9443 129.938C24.4203 129.588 24.1659 129.132 24.1798 128.567C25.6714 127.695 27.1547 126.828 28.6283 125.963Z" fill="#305397"/>
<path opacity="0.98" fill-rule="evenodd" clip-rule="evenodd" d="M28.4892 128.841C29.7501 128.629 30.7469 129.04 31.4781 130.075C31.9368 130.825 32.4234 131.555 32.9378 132.268C31.4503 133.367 29.9211 134.419 28.3502 135.421C27.2673 134.199 26.5722 132.829 26.265 131.309C26.5722 130.093 27.3146 129.27 28.4892 128.841ZM29.4624 130.212C30.2534 130.42 30.8094 130.9 31.1305 131.651C30.2992 132.335 29.4179 132.952 28.4892 133.502C27.1839 131.927 27.5078 130.83 29.4624 130.212Z" fill="#2F5297"/>
<path fill-rule="evenodd" clip-rule="evenodd" d="M52.0622 46.8241C56.4385 48.6512 60.5631 50.9128 64.4347 53.6089C65.8568 55.0852 67.4319 56.364 69.1612 57.4468C71.2659 58.5269 73.4902 59.2356 75.834 59.5714C78.998 60.1347 82.1954 60.4322 85.4261 60.4623C84.7978 60.8777 84.1958 61.3122 83.6189 61.7645C81.2876 63.2339 78.7853 64.3304 76.112 65.0541C73.2997 65.6654 70.4735 65.734 67.632 65.2597C63.6228 65.0294 59.6372 65.2131 55.6767 65.808C54.8634 65.9862 54.0752 66.1918 53.3134 66.4248C53.2105 66.4426 53.1174 66.4193 53.0354 66.3563C53.3426 66.0766 53.6206 65.7806 53.8695 65.4653C55.368 63.5916 56.0631 61.4437 55.9547 59.0231C55.8755 56.1625 55.1804 53.4664 53.8695 50.9361C53.287 49.5586 52.5919 48.2331 51.7842 46.9612C51.8482 46.8515 51.9399 46.8063 52.0622 46.8241Z" fill="#B41A23"/>
<path fill-rule="evenodd" clip-rule="evenodd" d="M69.5782 16.532C72.4906 22.2518 73.8808 28.3294 73.7487 34.762C73.8836 39.1317 74.5091 43.4274 75.6254 47.6464C75.8618 48.4633 76.1634 49.2405 76.529 49.9765C77.2213 51.9133 78.2876 53.6267 79.7264 55.1166C76.3275 53.6445 73.4318 51.4733 71.0379 48.6059C70.1621 47.2886 69.3975 45.918 68.7441 44.4938C67.1177 40.6518 64.5695 37.5445 61.0983 35.1732C60.8174 35.032 60.5394 34.895 60.2642 34.762C60.4574 35.0896 60.7354 35.3185 61.0983 35.4473C62.5843 36.8441 63.9509 38.3518 65.1992 39.9706C66.0375 41.259 66.8021 42.5845 67.493 43.9456C68.4828 47.3818 70.3359 50.2822 73.0536 52.6494C76.0008 55.1317 79.2913 57.0972 82.9238 58.5433C79.8821 58.5474 76.8696 58.25 73.8877 57.6523C72.1556 57.189 70.4874 56.5256 68.8832 55.6649C64.0009 51.4295 58.393 48.4825 52.0622 46.824C52.0469 46.739 52.001 46.6705 51.9232 46.6184C52.6725 46.2963 53.3676 45.907 54.0084 45.4533C56.2257 43.8702 57.4769 41.7223 57.7619 39.0111V38.874C57.8606 38.4231 57.9064 37.9667 57.9009 37.5034C57.8077 36.1272 57.6687 34.7565 57.4838 33.3913C57.7869 33.4037 58.0649 33.4941 58.3179 33.6655C58.3638 33.6422 58.4111 33.6202 58.457 33.5969C58.3416 33.4722 58.2026 33.3804 58.0399 33.3228C58.1178 33.2707 58.1636 33.2022 58.1789 33.1172C66.9439 31.053 70.6973 25.6155 69.4392 16.8061C69.4156 16.6704 69.4615 16.5786 69.5782 16.532ZM59.8471 34.4879C60.0598 34.4783 60.1988 34.5687 60.2642 34.762C60.0515 34.7716 59.9125 34.6811 59.8471 34.4879ZM60.2642 34.762C60.5394 34.895 60.8174 35.032 61.0983 35.1732V35.4473C60.7354 35.3185 60.4574 35.0896 60.2642 34.762Z" fill="#B51C24"/>
<path fill-rule="evenodd" clip-rule="evenodd" d="M87.5113 67.2471C89.559 73.1122 91.9918 78.8239 94.8097 84.3806C97.6011 89.1094 100.427 93.815 103.29 98.4986C106.063 103.182 107.87 108.208 108.711 113.576C108.905 116.45 108.974 119.329 108.92 122.211C108.522 129.351 106.854 136.205 103.915 142.772C103.915 142.863 103.869 142.909 103.776 142.909C103.8 142.773 103.754 142.681 103.637 142.634V142.497C104.523 139.873 105.172 137.176 105.583 134.41C106.555 128.23 105.977 122.199 103.846 116.317C102.307 112.652 100.059 109.478 97.1034 106.791C96.0997 106.137 95.0807 105.521 94.0451 104.941C93.4 104.42 92.8217 103.825 92.3074 103.159C92.2379 102.842 92.2156 102.523 92.2379 102.199C92.2587 98.9797 92.0043 95.7819 91.4733 92.6047C91.2411 91.1106 90.9395 89.6481 90.5697 88.2185C90.1054 86.1597 89.6188 84.1037 89.11 82.0504C87.9687 78.4483 86.8566 74.8379 85.7736 71.2221C85.5289 70.0378 85.2982 68.8494 85.0785 67.6583C85.009 66.5165 84.9854 65.3748 85.009 64.2316C84.9729 64.0288 85.0188 63.8465 85.148 63.6833C85.743 64.4304 86.3686 65.1623 87.0248 65.8764C87.1457 66.3534 87.307 66.8099 87.5113 67.2471Z" fill="#13468F"/>
<path fill-rule="evenodd" clip-rule="evenodd" d="M83.4799 63.8206C82.0897 65.2365 80.6995 66.6537 79.3094 68.0697C76.8335 70.5684 74.1004 72.7382 71.1074 74.5804C70.2761 74.9669 69.442 75.3096 68.6051 75.6084C65.1617 76.5747 62.4745 78.5389 60.5422 81.5023C60.4491 80.954 60.3573 80.4058 60.2642 79.8575C60.2072 78.6732 59.9528 77.5315 59.4996 76.4308C57.7688 72.7368 55.2429 69.6747 51.9232 67.2473C52.3847 66.7908 52.9408 66.5633 53.5914 66.5619C59.0742 65.7847 64.5417 65.8985 69.9953 66.9046C72.4948 67.1307 74.9512 66.9251 77.3631 66.2878C79.5054 65.7052 81.5447 64.8828 83.4799 63.8206Z" fill="#B41A23"/>
<path fill-rule="evenodd" clip-rule="evenodd" d="M84.453 64.3687C84.528 64.3769 84.5753 64.4221 84.592 64.5057C84.3793 64.9389 84.2875 65.3953 84.3139 65.8764C84.5586 70.2215 83.3547 74.1046 80.6995 77.5272C78.2376 80.4632 76.4999 83.798 75.4864 87.5331C75.0054 89.4699 74.4952 91.3888 73.9572 93.29C72.3127 89.84 69.7409 87.3042 66.2419 85.6827C64.2845 84.8343 62.291 84.0804 60.2642 83.4211H60.1251C60.1724 83.099 60.2419 82.7782 60.3337 82.4616C62.9013 79.4708 66.1223 77.5518 69.9953 76.7048C71.5829 76.2881 73.0189 75.5794 74.3048 74.5802C76.5374 72.9505 78.5768 71.1001 80.4215 69.029C81.8659 67.5596 83.2088 66.0066 84.453 64.3687Z" fill="#B41A23"/>
<path fill-rule="evenodd" clip-rule="evenodd" d="M101.969 81.6393C104.658 84.7946 107.021 88.1747 109.059 91.7823C113.708 99.3882 116.835 107.566 118.442 116.317C119.186 121.322 119.047 126.302 118.025 131.258C117.547 133.093 117.061 134.92 116.566 136.741C113.178 147.474 106.968 156.223 97.9375 162.989C87.0706 171.131 72.0778 169.32 60.4783 163.758C49.9923 158.729 41.497 149.343 39.6203 137.7C39.0559 134.198 39.1949 130.726 40.0373 127.283C40.3362 126.236 40.731 125.231 41.219 124.267C43.7477 119.377 47.5942 115.882 52.7573 113.782C53.8375 113.384 54.9023 112.996 55.9547 112.617C57.3685 112.216 58.8059 111.966 60.2642 111.863C58.963 112.253 57.7591 112.824 56.6498 113.576C51.8773 116.396 48.7036 120.462 47.1272 125.775C44.8876 133.322 46.9937 141.957 52.2707 147.843C60.8494 157.409 74.6301 164.59 87.6211 159.965C93.3931 157.911 98.3643 153.725 101.653 148.652C102.718 147.008 103.739 145.35 104.61 143.595C107.32 137.939 109.127 131.999 110.032 125.777C111.504 117.665 110.555 109.852 107.182 102.338C106.384 100.718 105.55 99.1182 104.68 97.5406C102.464 93.9398 100.194 90.376 97.868 86.8493C94.0562 80.4756 90.6503 73.8964 87.6503 67.1115C87.5767 66.9265 87.553 66.7442 87.5808 66.5632C88.6471 67.7516 89.7119 68.9386 90.7782 70.127C94.5914 73.9087 98.3212 77.7466 101.969 81.6407V81.6393Z" fill="#174790"/>
<path fill-rule="evenodd" clip-rule="evenodd" d="M87.6503 84.9289C88.5512 88.5749 89.4089 92.2305 90.2221 95.8943C90.546 97.583 90.8477 99.273 91.1257 100.966C91.1438 101.067 91.1202 101.159 91.0562 101.24C87.7671 97.9613 83.8052 95.8833 79.1704 95.0034C77.7496 94.6826 76.3136 94.477 74.8609 94.3866C74.8803 94.1453 74.8344 93.9164 74.7218 93.7012C75.9577 90.5788 77.2325 87.4715 78.5448 84.3806C79.4831 82.2985 80.6648 80.3796 82.0897 78.6238C82.3608 78.4565 82.5693 78.229 82.7153 77.9384C83.5508 76.2401 84.1068 74.4583 84.3835 72.5928C85.294 76.7665 86.3825 80.8799 87.6503 84.9289Z" fill="#B41A23"/>
<path fill-rule="evenodd" clip-rule="evenodd" d="M113.09 89.1781C115.395 91.2438 117.642 93.3916 119.833 95.6203C122.007 98.104 123.929 100.755 125.602 103.57C130.206 112.329 131.827 121.604 130.467 131.395C128.692 143.424 122.853 152.997 112.951 160.111C106.502 164.553 99.3666 167.318 91.5428 168.403C91.4052 168.427 91.312 168.381 91.2648 168.266C99.7295 165.152 106.611 159.989 111.909 152.778C115.633 147.535 118.39 141.823 120.18 135.644C120.371 135.216 120.51 134.76 120.597 134.273V133.862C120.69 133.862 120.736 133.817 120.736 133.725C120.861 133.628 120.909 133.491 120.875 133.314V133.177C122.189 127.48 122.328 121.769 121.292 116.043C120.728 113.221 120.009 110.435 119.138 107.682C115.536 98.0464 110.368 89.3646 103.637 81.6394C106.833 84.0052 109.983 86.5177 113.09 89.1781Z" fill="#174790"/>
<path fill-rule="evenodd" clip-rule="evenodd" d="M133.943 54.0887C131.197 55.1016 128.371 55.5128 125.463 55.3223C122.37 55.1345 119.798 53.9009 117.747 51.6215C115.822 49.0556 114.732 46.1771 114.48 42.9862C114.344 42.6038 114.298 42.1926 114.341 41.7526C113.157 41.7978 111.999 41.7526 110.866 41.6155C110.125 41.5566 109.383 41.488 108.642 41.4099C103.135 40.7081 99.7058 37.7146 98.3546 32.432C97.6498 29.0286 97.3245 25.6019 97.3815 22.1519C91.7374 21.9339 86.1768 21.1348 80.6995 19.7532C76.4651 18.6923 72.5726 16.9337 69.0222 14.4761C68.9763 14.5213 68.929 14.5679 68.8832 14.6131C72.5949 20.3371 74.6329 26.5956 74.9999 33.3914C75.1583 34.233 75.2501 35.1007 75.2779 35.9957V36.4069C75.4392 37.4911 75.5545 38.5877 75.6254 39.6966C76.0745 43.8237 77.2102 47.7534 79.0313 51.4844C80.3172 53.4842 81.9396 55.1743 83.8969 56.5559C83.9428 56.5326 83.99 56.5107 84.0359 56.4874C83.7676 56.0652 83.5368 55.6321 83.3408 55.1852C82.0355 53.1484 81.4335 50.9087 81.5336 48.4689C81.5892 47.1969 81.845 45.9633 82.2982 44.7681C83.3617 42.6723 84.5656 40.6615 85.9126 38.7371C85.8306 39.9803 85.6443 41.2139 85.3566 42.4379C84.8909 46.5047 85.8876 50.1603 88.3454 53.4034C90.2013 55.2099 92.3797 56.4887 94.8792 57.2412C98.4519 57.9759 102.066 58.2501 105.722 58.0637C107.075 58.0431 108.418 57.9526 109.754 57.7895C111.058 57.6292 112.355 57.4235 113.646 57.1727C114.525 57.1042 115.406 57.0809 116.288 57.1042C117.361 57.1631 118.381 57.392 119.346 57.7895C120.603 58.2487 121.808 58.8203 122.96 59.5029C124.466 61.0792 125.973 62.6554 127.478 64.2317C127.715 63.8863 127.969 63.5669 128.243 63.2722C128.753 62.5417 129.262 61.8097 129.772 61.0792C131.112 59.1191 132.502 57.2001 133.943 55.3223C134.279 54.8289 134.65 54.3491 135.055 53.8831C134.661 53.8214 134.29 53.8899 133.943 54.0887ZM106.01 49.6258C104.557 49.6258 103.38 48.4648 103.38 47.0324C103.38 45.6001 104.557 44.4391 106.01 44.4391C107.463 44.4391 108.64 45.6001 108.64 47.0324C108.64 48.4648 107.463 49.6258 106.01 49.6258Z" fill="#B51B23"/>
<path fill-rule="evenodd" clip-rule="evenodd" d="M50.5845 125.024C49.9325 129.207 50.1174 132.762 50.5052 135.196C52.3569 146.806 62.9847 155.149 74.0601 157.535C84.471 159.778 96.2846 153.756 100.621 143.901C98.1474 146.73 94.7582 148.667 91.4441 150.364C88.3968 151.924 84.781 152.623 81.371 152.632C74.3256 152.653 67.6348 149.566 62.3146 145.117C61.0718 144.078 59.8999 142.959 58.792 141.781C58.7461 141.731 58.7002 141.682 58.6544 141.631C54.8411 137.481 51.8968 132.81 50.5845 125.023V125.024Z" fill="#174790"/>
</svg>
