<svg width="161" height="112" viewBox="0 0 161 112" fill="none" xmlns="http://www.w3.org/2000/svg">
<g clip-path="url(#clip0_1_136)">
<path d="M32.2577 106.865C32.1871 106.865 32.1126 106.865 32.0656 106.865H31.3835L44.833 64.8706L47.969 68.6408C48.8588 69.7108 50.4582 69.8597 51.5283 68.9661C52.5985 68.0725 52.7474 66.4774 51.8537 65.4075L45.7699 58.0982C45.7385 58.059 45.7032 58.0276 45.6915 58.0198C45.6091 57.9297 45.519 57.8434 45.421 57.7572C45.3739 57.718 45.3269 57.6867 45.2603 57.6436C45.174 57.5808 45.0839 57.526 44.9898 57.475L44.6762 57.3339H44.6723C44.6487 57.3261 44.6252 57.3143 44.5978 57.3065C44.586 57.3065 44.5782 57.3026 44.5703 57.2987L44.2646 57.232C44.1587 57.2124 44.0529 57.2046 43.9235 57.2007H43.7354C43.6256 57.2085 43.5159 57.2203 43.4453 57.232C43.3669 57.2399 43.2885 57.2556 43.2062 57.2791C43.0964 57.3104 42.9906 57.3457 42.9043 57.381L42.775 57.4319L42.7005 57.4672C42.5907 57.526 42.4849 57.5926 42.3987 57.6514L42.285 57.7259C42.1439 57.8356 42.0145 57.961 41.9048 58.0982L0.595937 107.77C0.160819 108.287 -0.0469405 108.942 0.00793933 109.612C0.0628191 110.282 0.380338 110.894 0.893856 111.333C1.34857 111.717 1.92873 111.928 2.52457 111.928H3.12433V111.913H32.0381C32.7163 111.94 33.3592 111.705 33.857 111.25C34.3549 110.792 34.6449 110.173 34.6724 109.495C34.7312 108.103 33.6493 106.92 32.2537 106.861L32.2577 106.865ZM18.6279 100.273C18.5691 101.664 19.651 102.848 21.0465 102.906C21.1171 102.906 21.1915 102.906 21.2386 102.906H27.3498L26.0837 106.861H7.92631L19.8823 92.4774H26.0053C26.6795 92.5087 27.3263 92.2697 27.8242 91.815C28.322 91.3565 28.6121 90.7372 28.6395 90.0592C28.667 89.3851 28.4318 88.7385 27.977 88.2407C27.5223 87.743 26.899 87.453 26.2209 87.4255C26.1503 87.4255 26.0798 87.4255 26.0288 87.4255H24.0884L37.4634 71.3372L28.9649 97.8545H21.2621C20.5879 97.8232 19.9411 98.0622 19.4432 98.5168C18.9454 98.9715 18.6553 99.5946 18.6279 100.273Z" fill="#B41A23"/>
<path d="M53.1825 70.9413L53.1747 70.9492C52.1045 71.8388 51.9556 73.43 52.8415 74.5039L54.6878 76.7261C55.1856 77.3257 55.9069 77.6353 56.6321 77.6353C57.2044 77.6353 57.7767 77.4433 58.2471 77.0514C59.3173 76.1578 59.4662 74.5627 58.5725 73.4927L56.7301 71.2784C56.2989 70.7611 55.6952 70.4397 55.0249 70.377C54.3546 70.3143 53.6999 70.5181 53.1864 70.9453L53.1825 70.9413Z" fill="#B41A23"/>
<path d="M114.134 61.3276C114.632 61.9272 115.354 62.2368 116.079 62.2368C116.651 62.2368 117.223 62.0448 117.694 61.6529C118.764 60.7593 118.913 59.1642 118.019 58.0903L117.6 57.5926C117.168 57.0752 116.561 56.7539 115.887 56.6951C115.216 56.6324 114.558 56.8362 114.04 57.2712C112.97 58.1648 112.825 59.7599 113.715 60.8298L114.13 61.3315L114.134 61.3276Z" fill="#B41A23"/>
<path d="M160.12 108.738L123.774 65.0038C123.342 64.4864 122.735 64.1651 122.061 64.1024C121.386 64.0397 120.732 64.2435 120.214 64.6785C119.144 65.5721 118.995 67.1672 119.889 68.2371L135.843 87.4294H129.022C127.635 87.3706 126.447 88.4562 126.388 89.8476C126.361 90.5217 126.596 91.1683 127.051 91.6661C127.505 92.1638 128.129 92.4538 128.807 92.4813C128.877 92.4813 128.952 92.4813 128.999 92.4813H140.038L151.994 106.865H80.0893L86.4827 86.9003C86.6827 86.5711 86.8003 86.1949 86.8316 85.8108L100.089 44.4241L108.211 54.1946C108.642 54.712 109.25 55.0333 109.924 55.0921C110.595 55.1548 111.253 54.9471 111.771 54.516C112.841 53.6224 112.986 52.0273 112.096 50.9574L101.03 37.6439L100.951 37.5616C100.869 37.4675 100.775 37.3774 100.681 37.299L100.516 37.1814C100.43 37.1226 100.34 37.0678 100.242 37.0129C100.167 36.9737 100.089 36.9384 100.007 36.911L99.991 36.9031C99.9597 36.8875 99.9205 36.8679 99.8734 36.8522L99.5285 36.7738C99.4226 36.7542 99.3168 36.7425 99.1796 36.7346H98.9914C98.8817 36.7425 98.7719 36.7542 98.6974 36.766C98.623 36.7738 98.5446 36.7895 98.4779 36.8091C98.3721 36.8365 98.2701 36.8718 98.1682 36.911C98.1055 36.9306 98.0467 36.9541 97.9801 36.9854C97.8782 37.0364 97.7802 37.0952 97.6861 37.1579C97.6155 37.1932 97.5646 37.2363 97.541 37.2559C97.3999 37.3656 97.2706 37.491 97.1608 37.6282L38.8628 107.75C38.4237 108.264 38.216 108.918 38.2669 109.589C38.3218 110.263 38.6315 110.87 39.145 111.309C39.6036 111.697 40.1838 111.913 40.7796 111.913H157.395C158.783 111.913 159.916 110.788 159.924 109.4C159.924 109.169 159.896 108.942 159.834 108.722H160.131L160.12 108.738ZM68.1529 87.304C68.6115 86.8063 68.8467 86.1596 68.8154 85.4855C68.7605 84.1647 67.7178 83.1261 66.3732 83.0674H65.9538L71.1242 76.8515H80.8929C82.2844 76.7927 83.3703 75.6091 83.3115 74.2178C83.2566 72.897 82.2139 71.8585 80.8693 71.7997H75.3225L81.1437 64.7961H85.15C85.8242 64.7647 86.4475 64.4786 86.9061 63.9809C87.3647 63.4831 87.5999 62.8365 87.5686 62.1624C87.5137 60.9121 86.5807 59.9127 85.3381 59.7638L92.7195 50.8868L82.4216 83.0556H74.5346C73.8604 83.0282 73.2136 83.2633 72.7158 83.7179C72.2179 84.1765 71.9278 84.7957 71.9004 85.4737C71.873 86.1478 72.1082 86.7945 72.5629 87.2922C73.0176 87.79 73.6409 88.08 74.3151 88.1074C74.3896 88.1074 74.4602 88.1074 74.5072 88.1074H80.7949L79.0426 93.6061H61.3204C59.9288 93.5512 58.7449 94.6329 58.6861 96.0242C58.6273 97.4155 59.7092 98.5991 61.1048 98.6579C61.1753 98.6579 61.2459 98.6579 61.2968 98.6579H77.408L74.7855 106.849H46.1971L61.7594 88.1192H66.4046C67.0788 88.0918 67.7021 87.8017 68.1607 87.304H68.1529Z" fill="#B41A23"/>
<path d="M88.8975 96.6239C87.5138 96.6239 86.3809 97.7409 86.3691 99.1322V99.1518C86.3691 100.543 87.5059 101.676 88.8975 101.676H102.143C103.535 101.617 104.621 100.433 104.562 99.0421C104.507 97.7213 103.464 96.6827 102.12 96.6239H88.9014H88.8975Z" fill="#B41A23"/>
<path d="M116.976 90.0592C117.031 91.38 118.074 92.4186 119.395 92.4774H119.407H120.896C120.932 92.4774 120.971 92.4774 121.006 92.4774C121.641 92.4774 122.241 92.2422 122.711 91.8111C123.209 91.3526 123.499 90.7334 123.527 90.0553C123.585 88.664 122.504 87.4804 121.108 87.4216C121.037 87.4216 120.963 87.4216 120.916 87.4216H119.387C117.996 87.4804 116.91 88.664 116.969 90.0553L116.976 90.0592Z" fill="#B41A23"/>
<path d="M97.7605 74.9468C99.1561 74.9468 100.289 73.8142 100.289 72.4189C100.289 71.0237 99.1561 69.8911 97.7605 69.8911H96.4082C95.0126 69.8911 93.8798 71.0237 93.8798 72.4189C93.8798 73.8142 95.0126 74.9468 96.4082 74.9468H97.7605Z" fill="#B41A23"/>
<path d="M113.684 74.9468C115.079 74.9468 116.212 73.8142 116.212 72.4189C116.212 71.0237 115.079 69.8911 113.684 69.8911H105.824C104.432 69.8911 103.3 71.0237 103.3 72.415C103.3 73.8102 104.429 74.9429 105.824 74.9468H113.684Z" fill="#B41A23"/>
<path d="M66.0048 7.79899C62.5317 7.72453 59.2428 8.99827 56.7301 11.4047C54.2213 13.8071 52.7983 17.0405 52.7199 20.5129C52.6455 23.9853 53.9234 27.2774 56.3263 29.7857C58.7293 32.294 61.9633 33.7166 65.4364 33.795C65.5344 33.795 65.6324 33.795 65.7304 33.795C69.0898 33.795 72.2807 32.5134 74.715 30.1854C77.2238 27.783 78.6467 24.5496 78.7251 21.0772C78.7996 17.6087 77.5217 14.3166 75.1266 11.8083C72.7628 9.31964 69.4387 7.85778 66.0087 7.79507L66.0048 7.79899ZM74.37 20.991C74.3191 23.2994 73.3743 25.4511 71.7044 27.0462C68.2588 30.3422 62.7747 30.2207 59.478 26.7797C56.1813 23.3386 56.3028 17.8517 59.7446 14.5557C61.3596 13.0115 63.4803 12.1571 65.7186 12.1571H65.9107C70.6774 12.263 74.4719 16.2253 74.3661 20.9949L74.37 20.991Z" fill="#B41A23"/>
<path d="M49.4859 23.3582C49.3958 22.7821 49.0861 22.2765 48.6157 21.9355C48.1453 21.5946 47.569 21.4535 46.9928 21.5436C46.4166 21.6338 45.9148 21.9434 45.5698 22.4137C45.2249 22.884 45.0877 23.4601 45.1778 24.0362C45.3072 24.8671 45.4914 25.698 45.7188 26.5053C45.9814 27.442 46.8438 28.0965 47.8199 28.0965C48.0198 28.0965 48.2198 28.0691 48.4158 28.0142C49.5682 27.685 50.2425 26.4779 49.9132 25.3217C49.7329 24.679 49.5878 24.0206 49.482 23.3582H49.4859Z" fill="#B41A23"/>
<path d="M83.8916 25.4394C83.3468 25.2316 82.7548 25.2473 82.2256 25.4864C81.6925 25.7255 81.2888 26.1526 81.081 26.6974C79.5052 30.7969 76.428 34.042 72.4139 35.8291C68.3999 37.6163 63.9311 37.7299 59.8268 36.1583C58.3921 35.6057 57.0437 34.8611 55.8167 33.9362C55.3541 33.5874 54.7818 33.4345 54.2017 33.5129C53.6254 33.5913 53.1119 33.8931 52.763 34.3555C52.4102 34.818 52.2613 35.3941 52.3397 35.9702C52.4181 36.5463 52.7199 37.0558 53.1785 37.4086C56.7653 40.1403 61.2224 41.6452 65.7303 41.6452C66.1263 41.6452 66.53 41.6335 66.9299 41.6099C71.8651 41.3238 76.5456 39.2741 80.1049 35.8409L80.3519 35.5901C82.4412 33.5286 84.0994 30.9968 85.146 28.2573C85.3538 27.7125 85.3381 27.1207 85.099 26.5916C84.8599 26.0625 84.4326 25.6549 83.8877 25.4472L83.8916 25.4394Z" fill="#B41A23"/>
<path d="M85.9731 16.0528C85.7262 14.9868 85.3851 13.9286 84.9657 12.8978C84.7266 12.3648 84.2954 11.9611 83.7544 11.7534C83.2095 11.5457 82.6176 11.5653 82.0845 11.8005C81.0378 12.2708 80.5361 13.4818 80.9398 14.5713C81.2652 15.3708 81.5318 16.2056 81.7278 17.0483C81.959 18.0398 82.8293 18.7296 83.8524 18.7296C84.017 18.7296 84.1817 18.71 84.3424 18.6747C85.5106 18.4004 86.2436 17.2246 85.9692 16.0567L85.9731 16.0528Z" fill="#B41A23"/>
<path d="M74.1309 6.67416C74.6444 6.95243 75.2324 7.01121 75.7891 6.84661C76.3457 6.682 76.8083 6.30576 77.0866 5.79626C77.6236 4.80079 77.2983 3.53881 76.3261 2.91173C66.6869 -2.77894 54.3585 0.117347 48.2629 9.50382C47.9454 9.99372 47.8396 10.5738 47.9611 11.142C48.0826 11.7103 48.4158 12.2002 48.9058 12.5138H48.9137C49.2665 12.745 49.6741 12.8665 50.0896 12.8665C50.2425 12.8665 50.3954 12.8508 50.5483 12.8195C51.1167 12.698 51.6067 12.3609 51.9242 11.871C56.7419 4.44806 66.4909 2.16317 74.1348 6.67416H74.1309Z" fill="#B41A23"/>
</g>
<defs>
<clipPath id="clip0_1_136">
<rect width="160.12" height="111.928" fill="white"/>
</clipPath>
</defs>
</svg>
