<svg width="165" height="165" viewBox="0 0 165 165" fill="none" xmlns="http://www.w3.org/2000/svg">
<path d="M82.5 3.2312V16.4312" stroke="#73CDE5" stroke-width="1.5" stroke-miterlimit="10"/>
<path d="M161.562 82.2937H148.362" stroke="#73CDE5" stroke-width="1.5" stroke-miterlimit="10"/>
<path d="M16.6375 82.2937H3.4375" stroke="#73CDE5" stroke-width="1.5" stroke-miterlimit="10"/>
<path d="M82.5 3.2312V16.4312" stroke="#73CDE5" stroke-width="6" stroke-miterlimit="10" stroke-linecap="round"/>
<path d="M161.562 82.2937H148.362" stroke="#73CDE5" stroke-width="6" stroke-miterlimit="10" stroke-linecap="round"/>
<path d="M16.6375 82.2937H3.4375" stroke="#73CDE5" stroke-width="6" stroke-miterlimit="10" stroke-linecap="round"/>
<path d="M138.394 26.4L129.112 35.6813" stroke="#73CDE5" stroke-width="1.5" stroke-miterlimit="10"/>
<path d="M35.8875 35.6813L26.6063 26.4" stroke="#73CDE5" stroke-width="1.5" stroke-miterlimit="10"/>
<path d="M138.394 26.4L129.112 35.6813" stroke="#73CDE5" stroke-width="6" stroke-miterlimit="10" stroke-linecap="round"/>
<path d="M35.8875 35.6813L26.6063 26.4" stroke="#73CDE5" stroke-width="6" stroke-miterlimit="10" stroke-linecap="round"/>
<path d="M110 116.875L116.875 110C120.576 106.437 123.524 102.167 125.543 97.4429C127.563 92.7189 128.613 87.6375 128.631 82.5C128.631 76.442 127.438 70.4433 125.12 64.8464C122.801 59.2495 119.403 54.164 115.12 49.8803C110.836 45.5966 105.751 42.1986 100.154 39.8803C94.5568 37.562 88.5581 36.3688 82.5 36.3688C76.442 36.3688 70.4433 37.562 64.8464 39.8803C59.2495 42.1986 54.164 45.5966 49.8803 49.8803C45.5966 54.164 42.1986 59.2495 39.8803 64.8464C37.562 70.4433 36.3688 76.442 36.3688 82.5C36.4386 93.6441 40.6257 104.369 48.125 112.613" stroke="#73CDE5" stroke-width="6" stroke-miterlimit="10" stroke-linecap="round"/>
<path d="M3.4375 111.925C13.3375 111.925 13.3375 118.8 23.1687 118.8C33 118.8 33.0687 111.925 42.9688 111.925C52.8688 111.925 52.8 118.8 62.7 118.8C72.6 118.8 72.6 111.925 82.4312 111.925C92.2625 111.925 92.3312 118.8 102.231 118.8C112.131 118.8 112.062 111.925 121.962 111.925C131.862 111.925 131.863 118.8 141.763 118.8C151.663 118.8 151.662 111.925 161.562 111.925" stroke="#73CDE5" stroke-width="6" stroke-miterlimit="10" stroke-linecap="round"/>
<path d="M23.1688 151.25C33.0688 151.25 33.0688 144.375 42.9688 144.375C52.8688 144.375 52.8 151.25 62.7 151.25C72.6 151.25 72.6 144.375 82.4313 144.375C92.2625 144.375 92.3313 151.25 102.231 151.25C112.131 151.25 112.063 144.375 121.963 144.375C131.863 144.375 131.863 151.25 141.763 151.25" stroke="#73CDE5" stroke-width="6" stroke-miterlimit="10" stroke-linecap="round"/>
</svg>
