<svg width="35" height="34" viewBox="0 0 35 34" fill="none" xmlns="http://www.w3.org/2000/svg">
<path fill-rule="evenodd" clip-rule="evenodd" d="M6.3324 -0.00317383C3.01869 -0.00317383 0.332397 2.68312 0.332397 5.99683V27.7061C0.332397 31.0198 3.01869 33.7061 6.3324 33.7061H28.0416C31.3554 33.7061 34.0416 31.0198 34.0416 27.7061V5.99683C34.0416 2.68312 31.3553 -0.00317383 28.0416 -0.00317383H6.3324ZM25.4343 8.82344C25.606 8.93528 25.7833 9.03844 25.9654 9.13256C27.1502 9.72326 28.3074 9.90311 28.8773 9.84128V14.441C28.8773 14.441 27.2508 14.3735 26.0435 14.0532C24.3608 13.603 23.2822 12.9117 23.2822 12.9117C23.2822 12.9117 22.5336 12.4165 22.4774 12.3828V21.8879C22.4774 22.4163 22.3375 23.7382 21.9182 24.8403C21.5507 25.7828 21.0254 26.6557 20.3647 27.4217C20.3647 27.4217 19.3306 28.7037 17.5141 29.5642C16 30.2818 14.6531 30.3211 14.1181 30.3367C14.0744 30.3379 14.0361 30.3391 14.0036 30.3404C14.0036 30.3404 11.5166 30.4404 9.27352 28.9162L9.26228 28.9049V28.9162C8.50392 28.387 7.82765 27.749 7.25525 27.0227C6.5454 26.1173 6.10983 25.0432 5.99742 24.7285V24.7172C5.81869 24.1827 5.44381 22.8895 5.50002 21.6412C5.58938 19.442 6.32733 18.0869 6.52292 17.7497C7.03689 16.825 7.70829 15.997 8.5069 15.3031C9.41832 14.5391 10.4782 13.9722 11.6197 13.6383C12.7611 13.3044 13.9594 13.2106 15.1389 13.363L15.1333 18.0807C14.7448 17.9541 14.3386 17.8898 13.93 17.8902C11.7712 17.8902 10.0216 19.6505 10.0216 21.8244C10.0216 23.9984 11.7712 25.7587 13.93 25.7587C14.6021 25.7595 15.2629 25.5852 15.8471 25.2528C16.4076 24.9344 16.8813 24.483 17.2265 23.9385C17.5717 23.394 17.7777 22.773 17.8266 22.1302V22.1201C17.8294 22.1066 17.8294 22.0931 17.8294 22.0802C17.8299 22.0699 17.8306 22.0601 17.8312 22.0506C17.8326 22.0309 17.8339 22.0122 17.8339 21.9925C17.844 21.7575 17.844 21.5198 17.844 21.2793V3.36271H22.4774C22.4701 3.36271 22.4218 3.80671 22.5387 4.49296H22.533C22.673 5.31971 23.0529 6.50055 24.0702 7.66452C24.4768 8.10412 24.9348 8.49322 25.4343 8.82344Z" fill="white"/>
</svg>
