<svg width="39" height="39" viewBox="0 0 39 39" fill="none" xmlns="http://www.w3.org/2000/svg">
<path d="M3.89893 9.99987C4.84785 10.7906 5.79677 11.5814 7.85277 11.5814C11.8066 11.5814 11.8066 8.41833 15.7605 8.41833C19.8724 8.41833 19.5561 11.5814 23.6681 11.5814C27.622 11.5814 27.622 8.41833 31.5758 8.41833C33.6318 8.41833 34.5807 9.2091 35.5297 9.99987M3.89893 19.4891C4.84785 20.2799 5.79677 21.0706 7.85277 21.0706C11.8066 21.0706 11.8066 17.9076 15.7605 17.9076C19.8724 17.9076 19.5561 21.0706 23.6681 21.0706C27.622 21.0706 27.622 17.9076 31.5758 17.9076C33.6318 17.9076 34.5807 18.6983 35.5297 19.4891M3.89893 28.9783C4.84785 29.7691 5.79677 30.5598 7.85277 30.5598C11.8066 30.5598 11.8066 27.3968 15.7605 27.3968C19.8724 27.3968 19.5561 30.5598 23.6681 30.5598C27.622 30.5598 27.622 27.3968 31.5758 27.3968C33.6318 27.3968 34.5807 28.1875 35.5297 28.9783" fill="#000033"/>
<path d="M3.89893 9.99987C4.84785 10.7906 5.79677 11.5814 7.85277 11.5814C11.8066 11.5814 11.8066 8.41833 15.7605 8.41833C19.8724 8.41833 19.5561 11.5814 23.6681 11.5814C27.622 11.5814 27.622 8.41833 31.5758 8.41833C33.6318 8.41833 34.5807 9.2091 35.5297 9.99987M3.89893 19.4891C4.84785 20.2799 5.79677 21.0706 7.85277 21.0706C11.8066 21.0706 11.8066 17.9076 15.7605 17.9076C19.8724 17.9076 19.5561 21.0706 23.6681 21.0706C27.622 21.0706 27.622 17.9076 31.5758 17.9076C33.6318 17.9076 34.5807 18.6983 35.5297 19.4891M3.89893 28.9783C4.84785 29.7691 5.79677 30.5598 7.85277 30.5598C11.8066 30.5598 11.8066 27.3968 15.7605 27.3968C19.8724 27.3968 19.5561 30.5598 23.6681 30.5598C27.622 30.5598 27.622 27.3968 31.5758 27.3968C33.6318 27.3968 34.5807 28.1875 35.5297 28.9783" stroke="#73CDE5" stroke-width="2.33581" stroke-linecap="round" stroke-linejoin="round"/>
</svg>
