<svg width="249" height="228" viewBox="0 0 249 228" fill="none" xmlns="http://www.w3.org/2000/svg">
<path d="M-13.4167 31.4492C8.02325 31.4492 8.02325 40.4742 29.3516 40.4742C50.6799 40.4742 50.7916 31.4492 72.1199 31.4492C93.4482 31.4492 93.5599 40.4742 114.888 40.4742C136.217 40.4742 136.328 31.4492 157.657 31.4492C178.985 31.4492 179.097 40.4742 200.537 40.4742C221.977 40.4742 221.977 31.4492 243.417 31.4492" stroke="#73CDE5" stroke-width="6" stroke-miterlimit="10" stroke-linecap="round"/>
<path d="M-13.4167 86.0743C8.02325 86.0743 8.02325 95.0993 29.3516 95.0993C50.6799 95.0993 50.7916 86.0743 72.1199 86.0743C93.4482 86.0743 93.5599 95.0993 114.888 95.0993C136.217 95.0993 136.328 86.0743 157.657 86.0743C178.985 86.0743 179.097 95.0993 200.537 95.0993C221.977 95.0993 221.977 86.0743 243.417 86.0743" stroke="#73CDE5" stroke-width="6" stroke-miterlimit="10" stroke-linecap="round"/>
<path d="M-13.4167 140.699C8.02325 140.699 8.02325 149.724 29.3516 149.724C50.6799 149.724 50.7916 140.699 72.1199 140.699C93.4482 140.699 93.5599 149.724 114.888 149.724C136.217 149.724 136.328 140.699 157.657 140.699C178.985 140.699 179.097 149.724 200.537 149.724C221.977 149.724 221.977 140.699 243.417 140.699" stroke="#73CDE5" stroke-width="6" stroke-miterlimit="10" stroke-linecap="round"/>
<path d="M-13.4167 195.324C8.02325 195.324 8.02325 204.824 29.3516 204.824C50.6799 204.824 50.7916 195.324 72.1199 195.324C93.4482 195.324 93.5599 204.824 114.888 204.824C136.217 204.824 136.328 195.324 157.657 195.324C178.985 195.324 179.097 204.824 200.537 204.824C221.977 204.824 221.977 195.324 243.417 195.324" stroke="#73CDE5" stroke-width="6" stroke-miterlimit="10" stroke-linecap="round"/>
</svg>
