<svg width="42" height="42" viewBox="0 0 42 42" fill="none" xmlns="http://www.w3.org/2000/svg">
<path d="M20.7303 0.510498C21.123 0.510498 21.4996 0.666504 21.7773 0.944195C22.055 1.22189 22.211 1.59852 22.211 1.99123V4.9527C22.211 5.34542 22.055 5.72205 21.7773 5.99974C21.4996 6.27743 21.123 6.43344 20.7303 6.43344C20.3376 6.43344 19.961 6.27743 19.6833 5.99974C19.4056 5.72205 19.2496 5.34542 19.2496 4.9527V1.99123C19.2496 1.59852 19.4056 1.22189 19.6833 0.944195C19.961 0.666504 20.3376 0.510498 20.7303 0.510498ZM20.7303 30.1252C23.0866 30.1252 25.3464 29.1892 27.0125 27.523C28.6787 25.8569 29.6147 23.5971 29.6147 21.2408C29.6147 18.8845 28.6787 16.6247 27.0125 14.9586C25.3464 13.2924 23.0866 12.3564 20.7303 12.3564C18.374 12.3564 16.1142 13.2924 14.4481 14.9586C12.7819 16.6247 11.8459 18.8845 11.8459 21.2408C11.8459 23.5971 12.7819 25.8569 14.4481 27.523C16.1142 29.1892 18.374 30.1252 20.7303 30.1252ZM20.7303 27.1637C19.1594 27.1637 17.6529 26.5397 16.5421 25.4289C15.4314 24.3182 14.8074 22.8117 14.8074 21.2408C14.8074 19.6699 15.4314 18.1634 16.5421 17.0526C17.6529 15.9419 19.1594 15.3179 20.7303 15.3179C22.3012 15.3179 23.8077 15.9419 24.9184 17.0526C26.0292 18.1634 26.6532 19.6699 26.6532 21.2408C26.6532 22.8117 26.0292 24.3182 24.9184 25.4289C23.8077 26.5397 22.3012 27.1637 20.7303 27.1637ZM39.9799 22.7215C40.3726 22.7215 40.7492 22.5655 41.0269 22.2878C41.3046 22.0101 41.4606 21.6335 41.4606 21.2408C41.4606 20.8481 41.3046 20.4715 41.0269 20.1938C40.7492 19.9161 40.3726 19.7601 39.9799 19.7601H37.0184C36.6257 19.7601 36.249 19.9161 35.9713 20.1938C35.6937 20.4715 35.5377 20.8481 35.5377 21.2408C35.5377 21.6335 35.6937 22.0101 35.9713 22.2878C36.249 22.5655 36.6257 22.7215 37.0184 22.7215H39.9799ZM20.7303 36.0482C21.123 36.0482 21.4996 36.2042 21.7773 36.4818C22.055 36.7595 22.211 37.1362 22.211 37.5289V40.4904C22.211 40.8831 22.055 41.2597 21.7773 41.5374C21.4996 41.8151 21.123 41.9711 20.7303 41.9711C20.3376 41.9711 19.961 41.8151 19.6833 41.5374C19.4056 41.2597 19.2496 40.8831 19.2496 40.4904V37.5289C19.2496 37.1362 19.4056 36.7595 19.6833 36.4818C19.961 36.2042 20.3376 36.0482 20.7303 36.0482ZM4.44221 22.7215C4.83492 22.7215 5.21155 22.5655 5.48924 22.2878C5.76694 22.0101 5.92294 21.6335 5.92294 21.2408C5.92294 20.8481 5.76694 20.4715 5.48924 20.1938C5.21155 19.9161 4.83492 19.7601 4.44221 19.7601H1.48074C1.08802 19.7601 0.711389 19.9161 0.433697 20.1938C0.156006 20.4715 0 20.8481 0 21.2408C0 21.6335 0.156006 22.0101 0.433697 22.2878C0.711389 22.5655 1.08802 22.7215 1.48074 22.7215H4.44221ZM6.35532 6.86582C6.49286 6.72792 6.65627 6.61851 6.83616 6.54387C7.01606 6.46922 7.20891 6.43079 7.40368 6.43079C7.59845 6.43079 7.7913 6.46922 7.9712 6.54387C8.15109 6.61851 8.31449 6.72792 8.45204 6.86582L11.4135 9.82729C11.5512 9.96496 11.6604 10.1284 11.7349 10.3083C11.8094 10.4882 11.8478 10.6809 11.8478 10.8756C11.8478 11.0703 11.8094 11.2631 11.7349 11.443C11.6604 11.6229 11.5512 11.7863 11.4135 11.924C11.2758 12.0617 11.1124 12.1709 10.9325 12.2454C10.7526 12.3199 10.5598 12.3583 10.3651 12.3583C10.1705 12.3583 9.97766 12.3199 9.79778 12.2454C9.6179 12.1709 9.45446 12.0617 9.31679 11.924L6.35532 8.96254C6.21742 8.82499 6.10802 8.66159 6.03337 8.48169C5.95872 8.3018 5.9203 8.10894 5.9203 7.91418C5.9203 7.71941 5.95872 7.52655 6.03337 7.34666C6.10802 7.16676 6.21742 7.00336 6.35532 6.86582ZM8.45204 35.6158C8.31456 35.7535 8.15131 35.8627 7.97161 35.9373C7.79191 36.0119 7.59929 36.0503 7.40472 36.0505C7.21016 36.0506 7.01748 36.0124 6.83768 35.9381C6.65787 35.8638 6.49447 35.7547 6.3568 35.6173C6.21912 35.4798 6.10988 35.3165 6.0353 35.1368C5.96071 34.9571 5.92226 34.7645 5.92212 34.5699C5.92198 34.3754 5.96017 34.1827 6.03449 34.0029C6.10882 33.8231 6.21784 33.6597 6.35532 33.522L9.31679 30.5605C9.45427 30.4229 9.61751 30.3136 9.79721 30.239C9.97691 30.1645 10.1695 30.126 10.3641 30.1259C10.5587 30.1257 10.7513 30.1639 10.9311 30.2382C11.111 30.3126 11.2744 30.4216 11.412 30.5591C11.5497 30.6965 11.6589 30.8598 11.7335 31.0395C11.8081 31.2192 11.8466 31.4118 11.8467 31.6064C11.8468 31.8009 11.8087 31.9936 11.7343 32.1734C11.66 32.3532 11.551 32.5166 11.4135 32.6543L8.45204 35.6158ZM35.1053 6.86582C34.9677 6.72792 34.8043 6.61851 34.6244 6.54387C34.4445 6.46922 34.2517 6.43079 34.0569 6.43079C33.8621 6.43079 33.6693 6.46922 33.4894 6.54387C33.3095 6.61851 33.1461 6.72792 33.0086 6.86582L30.0471 9.82729C29.769 10.1053 29.6128 10.4824 29.6128 10.8756C29.6128 11.2689 29.769 11.646 30.0471 11.924C30.3251 12.2021 30.7022 12.3583 31.0954 12.3583C31.4887 12.3583 31.8658 12.2021 32.1438 11.924L35.1053 8.96254C35.2432 8.82499 35.3526 8.66159 35.4272 8.48169C35.5019 8.3018 35.5403 8.10894 35.5403 7.91418C35.5403 7.71941 35.5019 7.52655 35.4272 7.34666C35.3526 7.16676 35.2432 7.00336 35.1053 6.86582ZM33.0086 35.6158C33.2862 35.8938 33.6629 36.0502 34.0559 36.0505C34.4488 36.0507 34.8258 35.8949 35.1038 35.6173C35.3818 35.3396 35.5382 34.9629 35.5385 34.5699C35.5388 34.177 35.3829 33.8001 35.1053 33.522L32.1438 30.5605C31.8662 30.2825 31.4894 30.1261 31.0965 30.1259C30.7036 30.1256 30.3266 30.2814 30.0486 30.5591C29.7705 30.8367 29.6142 31.2134 29.6139 31.6064C29.6136 31.9993 29.7694 32.3763 30.0471 32.6543L33.0086 35.6158Z" fill="#73CDE5"/>
</svg>
