<svg width="37" height="36" viewBox="0 0 37 36" fill="none" xmlns="http://www.w3.org/2000/svg">
<g clip-path="url(#clip0_1_216)">
<path d="M27.2853 0.222412C27.4982 0.222412 27.924 0.222412 28.2433 0.257896C29.024 0.257896 30.053 0.328862 30.5143 0.435313C31.2239 0.577246 31.8981 0.790147 32.4304 1.07401C33.1045 1.39336 33.6723 1.81917 34.2045 2.35142C34.7013 2.84819 35.1271 3.41592 35.4465 4.0901C35.7303 4.62236 35.9432 5.29654 36.0852 6.00621C36.1916 6.46749 36.2626 7.49651 36.298 8.27715V26.6931C36.298 26.906 36.2981 27.3318 36.2626 27.6512C36.2626 28.4318 36.1916 29.4608 36.0852 29.9221C35.9432 30.6318 35.7303 31.306 35.4465 31.8382C35.1271 32.5124 34.7013 33.0801 34.169 33.6124C33.6723 34.1091 33.1045 34.535 32.4304 34.8543C31.8981 35.1382 31.2239 35.3511 30.5143 35.493C30.053 35.5994 29.024 35.6704 28.2433 35.7059H9.82742C9.61452 35.7059 9.18872 35.7059 8.86937 35.6704C8.08874 35.6704 7.05972 35.5994 6.59843 35.493C5.88876 35.3511 5.21458 35.1382 4.68233 34.8543C4.00814 34.535 3.44041 34.1091 2.90816 33.5769C2.41139 33.0801 1.98559 32.5124 1.66624 31.8382C1.38237 31.306 1.16947 30.6318 1.02754 29.9221C0.921086 29.4608 0.85012 28.4318 0.814636 27.6512V9.2352C0.814636 9.0223 0.814636 8.5965 0.85012 8.27715C0.85012 7.49651 0.921086 6.46749 1.02754 6.00621C1.16947 5.29654 1.38237 4.62236 1.66624 4.0901C1.98559 3.41592 2.41139 2.84819 2.94364 2.31593C3.44041 1.81917 4.00814 1.39336 4.68233 1.07401C5.21458 0.790147 5.88876 0.577246 6.59843 0.435313C7.05972 0.328862 8.08867 0.257896 8.86937 0.222412H27.2853ZM27.8879 8.71646C25.4999 6.32646 22.3242 5.00962 18.9406 5.00824C11.969 5.00824 6.29495 10.6801 6.29218 17.6518C6.29128 19.8803 6.87364 22.0557 7.98048 23.9731L6.18608 30.5254L12.8912 28.7672C14.7386 29.7745 16.8186 30.3053 18.9356 30.3062H18.9408C25.9117 30.3062 31.5862 24.6336 31.5891 17.6619C31.5904 14.2833 30.2761 11.1065 27.8879 8.71646ZM18.9407 28.1706H18.9365C17.05 28.1698 15.1998 27.6633 13.5858 26.7057L13.2019 26.4779L9.22296 27.5214L10.285 23.6432L10.035 23.2457C8.98268 21.5723 8.42694 19.6384 8.4277 17.6526C8.42999 11.8581 13.1461 7.14376 18.9449 7.14376C21.7529 7.14487 24.3924 8.23952 26.3772 10.226C28.3621 12.2124 29.4546 14.8529 29.4536 17.6611C29.4511 23.456 24.7352 28.1706 18.9407 28.1706ZM24.7072 20.2996C24.3912 20.1414 22.8374 19.3771 22.5477 19.2717C22.258 19.1663 22.0474 19.1135 21.8367 19.4298C21.6259 19.7461 21.0203 20.4577 20.8359 20.6686C20.6516 20.8794 20.4673 20.9058 20.1512 20.7476C19.8351 20.5895 18.8169 20.2559 17.6097 19.1795C16.6702 18.3418 16.0359 17.3071 15.8516 16.9908C15.6672 16.6745 15.832 16.5035 15.9902 16.346C16.1323 16.2046 16.3062 15.977 16.4642 15.7926C16.6222 15.6081 16.6749 15.4763 16.7802 15.2654C16.8856 15.0546 16.8329 14.8701 16.7539 14.7119C16.6749 14.5538 16.0428 12.9987 15.7795 12.3661C15.523 11.7501 15.2624 11.8335 15.0684 11.8238C14.8843 11.8146 14.6734 11.8127 14.4627 11.8127C14.252 11.8127 13.9097 11.8917 13.6199 12.208C13.3302 12.5243 12.5138 13.2887 12.5138 14.8437C12.5138 16.3988 13.6463 17.9011 13.8043 18.112C13.9624 18.3229 16.0329 21.5141 19.2032 22.8826C19.9572 23.2081 20.5458 23.4024 21.0048 23.5481C21.7619 23.7885 22.4509 23.7546 22.9954 23.6733C23.6026 23.5826 24.8653 22.9089 25.1287 22.171C25.392 21.433 25.392 20.8004 25.313 20.6686C25.234 20.5368 25.0233 20.4577 24.7072 20.2996Z" fill="white"/>
</g>
<defs>
<clipPath id="clip0_1_216">
<rect width="35.4834" height="35.4834" fill="white" transform="translate(0.814392 0.222656)"/>
</clipPath>
</defs>
</svg>
