<svg width="45" height="34" viewBox="0 0 45 34" fill="none" xmlns="http://www.w3.org/2000/svg">
<path d="M44.4323 7.63228C44.4323 3.7902 41.5898 0.699457 38.0774 0.699457C33.3197 0.478324 28.4676 0.392944 23.509 0.392944H21.9632C17.0167 0.392944 12.156 0.478324 7.39833 0.700311C3.89451 0.700311 1.05195 3.80813 1.05195 7.65021C0.837255 10.6889 0.746224 13.7284 0.751377 16.7679C0.742789 19.8074 0.840117 22.8498 1.04336 25.895C1.04336 29.7371 3.88592 32.8534 7.38974 32.8534C12.3878 33.084 17.5147 33.1864 22.7275 33.1779C27.9489 33.195 33.0615 33.0868 38.0653 32.8534C41.5777 32.8534 44.4203 29.7371 44.4203 25.895C44.6264 22.8469 44.7209 19.8074 44.7123 16.7594C44.7318 13.7199 44.6384 10.6775 44.4323 7.63228ZM18.5281 25.1437V8.36655L30.9804 16.7508L18.5281 25.1437Z" fill="white"/>
</svg>
